<svg width="135" height="93" viewBox="0 0 135 93" fill="none" xmlns="http://www.w3.org/2000/svg">
<path d="M38.6553 74.2742L19.8273 85.1664C15.6135 87.6042 10.755 83.1948 12.7737 78.765L17.9853 67.3291C18.5637 66.06 18.0338 64.5607 16.7864 63.9367C16.6338 63.8604 16.489 63.7691 16.3543 63.6643L12.8596 60.9452L10.6872 58.7721C10.4925 58.5773 10.3142 58.3668 10.1542 58.1427L8.34059 55.6027L6.51445 53.0452C6.36273 52.8328 6.22788 52.6087 6.11115 52.3752L4.80209 49.7561C4.69634 49.5445 4.60573 49.3257 4.53095 49.1013L3.59421 46.2901C3.47235 45.9244 3.3932 45.5459 3.35831 45.162L3 41.2192V35.455C3 34.9177 3.08658 34.384 3.25642 33.8743L4.4014 30.4382C4.56171 29.9571 4.79427 29.5032 5.0911 29.092L9.69851 22.7103C9.88829 22.4474 10.1032 22.2037 10.3402 21.9824L15.6738 17.0026C15.9873 16.7098 16.3373 16.4587 16.7149 16.2552L21.4867 13.6849L27.6489 10.8082L34.6327 8.34247L39.1517 6.69863L45.3139 5.05479L51.4761 3.82192L56.4059 3.41096L62.979 3H70.3736L77.7683 3.41096L85.5738 4.23288L93.3792 5.87671L100.363 7.93151L106.525 10.3973L113.122 13.5025C113.38 13.6239 113.627 13.7671 113.86 13.9306L117.617 16.5616L120.904 19.4384L124.213 22.7488C124.471 23.0068 124.7 23.2923 124.896 23.6001L127.477 27.6575L129.372 31.4494C129.478 31.6609 129.568 31.8798 129.643 32.1042L131.396 37.3631C131.521 37.7407 131.602 38.132 131.635 38.5286L131.944 42.2415C131.978 42.6542 131.961 43.0697 131.893 43.4782L131.298 47.0531C131.216 47.5446 131.061 48.0211 130.838 48.4668L129.531 51.0822L127.888 53.5479L126.244 55.6027L122.931 59.6535C122.676 59.9656 122.384 60.2456 122.062 60.4875L117.617 63.8219L111.799 67.3143C111.57 67.4516 111.331 67.5703 111.083 67.6694L105.293 69.9863L99.1307 72.4521L93.3792 74.5069L88.0387 75.7397L79.0007 76.9726H70.3736H60.9249L50.6545 75.7397L42.3263 73.7403C41.0794 73.4409 39.7652 73.632 38.6553 74.2742Z" stroke="black" stroke-width="5" stroke-linecap="round"/>
<mask id="path-2-inside-1_49_62" fill="white">
<rect x="127.249" y="65.8767" width="5.75141" height="9.86301" rx="1"/>
</mask>
<rect x="127.249" y="65.8767" width="5.75141" height="9.86301" rx="1" fill="black" stroke="black" stroke-width="5.75141" mask="url(#path-2-inside-1_49_62)"/>
<path d="M128.892 52.3151L127.985 56.2479C127.772 57.1688 127.825 58.131 128.137 59.023L130.535 65.8767" stroke="black" stroke-linecap="round"/>
<mask id="path-4-outside-2_49_62" maskUnits="userSpaceOnUse" x="13.6853" y="32.7123" width="103" height="20" fill="black">
<rect fill="white" x="13.6853" y="32.7123" width="103" height="20"/>
<path d="M21.8853 36.3523C20.9467 36.3523 20.1787 36.6937 19.5813 37.3763C18.984 38.059 18.6853 38.891 18.6853 39.8723V43.2323C18.6853 43.5523 18.5253 43.7123 18.2053 43.7123C17.8853 43.7123 17.7253 43.5523 17.7253 43.2323V39.8723C17.7253 38.923 17.9653 38.0697 18.4453 37.3123C18.9253 36.555 19.5387 36.0217 20.2853 35.7123C18.6853 35.435 17.192 35.2963 15.8053 35.2963C15.4853 35.2963 15.3253 35.1363 15.3253 34.8163C15.3253 34.4963 15.4853 34.3363 15.8053 34.3363C17.4587 34.3363 19.4853 34.5817 21.8853 35.0723C22.0133 35.0937 22.1253 35.1683 22.2213 35.2963C22.3173 35.4137 22.3653 35.5523 22.3653 35.7123C22.3653 35.8723 22.312 36.0217 22.2053 36.1603C22.0987 36.2883 21.992 36.3523 21.8853 36.3523ZM35.1803 35.3923L34.7003 35.2963C34.3163 35.2963 33.7937 35.3817 33.1323 35.5523C32.471 35.7123 32.1403 35.8723 32.1403 36.0323C32.1403 36.3523 32.487 36.7257 33.1803 37.1523C33.4363 37.3017 33.671 37.5097 33.8843 37.7763C34.1083 38.0323 34.2203 38.2883 34.2203 38.5443C34.2203 38.8003 34.1457 39.0297 33.9963 39.2323C33.8577 39.435 33.719 39.5897 33.5803 39.6963C33.4523 39.7923 33.2977 39.899 33.1163 40.0163C32.935 40.1337 32.823 40.2083 32.7803 40.2403C32.7483 40.2617 32.6897 40.299 32.6043 40.3523L32.4123 40.4803C32.3697 40.5017 32.311 40.539 32.2363 40.5923C32.1723 40.635 32.119 40.6723 32.0763 40.7043C32.0337 40.7257 31.9857 40.7577 31.9323 40.8003C31.8897 40.843 31.8523 40.875 31.8203 40.8963C31.7777 40.9283 31.7457 40.9603 31.7243 40.9923C31.6817 41.0457 31.6603 41.099 31.6603 41.1523C31.6603 41.5043 31.9163 41.8617 32.4283 42.2243C32.951 42.5763 33.5483 42.7523 34.2203 42.7523C35.5963 42.7523 36.6523 42.6297 37.3883 42.3843C37.6123 42.3097 37.7403 42.2723 37.7723 42.2723C38.0923 42.2723 38.2523 42.4323 38.2523 42.7523C38.2523 42.987 38.0923 43.1577 37.7723 43.2643C36.8763 43.563 35.6923 43.7123 34.2203 43.7123C33.2923 43.7123 32.471 43.4457 31.7563 42.9123C31.0523 42.3683 30.7003 41.7817 30.7003 41.1523C30.7003 40.683 31.063 40.2137 31.7883 39.7443C31.8523 39.7017 31.9483 39.6377 32.0763 39.5523C32.215 39.467 32.439 39.3177 32.7483 39.1043C33.0577 38.891 33.2283 38.7203 33.2603 38.5923C33.2603 38.4963 33.1483 38.363 32.9243 38.1923C32.711 38.011 32.4763 37.8297 32.2203 37.6483C31.9643 37.467 31.7243 37.2323 31.5003 36.9443C31.287 36.6457 31.1803 36.3363 31.1803 36.0163C31.1803 35.6857 31.3297 35.403 31.6283 35.1683C31.927 34.923 32.3963 34.7257 33.0363 34.5763C33.6763 34.4163 34.167 34.3363 34.5083 34.3363C34.8603 34.3363 35.1377 34.3897 35.3403 34.4963C35.5537 34.603 35.6603 34.7417 35.6603 34.9123C35.6603 35.2323 35.5003 35.3923 35.1803 35.3923ZM48.0913 35.7283C48.4007 34.8003 48.8913 34.3363 49.5633 34.3363C50.0967 34.3363 50.47 34.6563 50.6833 35.2963C50.8753 35.8617 51.126 37.2483 51.4353 39.4563C51.766 39.4137 51.9527 39.3923 51.9953 39.3923C52.3153 39.3923 52.4753 39.5523 52.4753 39.8723C52.4753 40.0003 52.4273 40.107 52.3313 40.1923C52.2353 40.2777 52.1233 40.331 51.9953 40.3523L51.5793 40.4003C51.686 41.2857 51.7393 41.947 51.7393 42.3843C51.7393 42.8217 51.6273 43.1523 51.4033 43.3763C51.1793 43.6003 50.918 43.7123 50.6193 43.7123C50.3313 43.7123 50.054 43.5897 49.7873 43.3443C49.5313 43.099 49.3287 42.8163 49.1793 42.4963C48.8593 41.803 48.6993 41.2857 48.6993 40.9443C48.6993 40.2937 49.2913 39.8457 50.4753 39.6003C50.1447 37.339 49.926 36.059 49.8193 35.7603C49.7233 35.451 49.638 35.2963 49.5633 35.2963C49.35 35.2963 49.1633 35.5363 49.0033 36.0163C48.5127 37.4883 48.1873 38.5443 48.0273 39.1843C47.8673 39.8243 47.6967 40.523 47.5153 41.2803C47.334 42.0377 47.1953 42.5977 47.0993 42.9603C47.014 43.3123 46.934 43.5257 46.8593 43.6003C46.7953 43.675 46.694 43.7123 46.5553 43.7123C46.2353 43.7123 46.0753 43.5523 46.0753 43.2323L46.1073 43.0403C46.246 42.4857 46.406 41.8297 46.5873 41.0723C46.7793 40.315 46.918 39.755 47.0033 39.3923C47.2593 38.3897 47.622 37.1683 48.0913 35.7283ZM50.6193 40.5603C49.9793 40.699 49.6593 40.8537 49.6593 41.0243C49.6593 41.2163 49.782 41.5523 50.0273 42.0323C50.2833 42.5123 50.4807 42.7523 50.6193 42.7523C50.726 42.7523 50.7793 42.5763 50.7793 42.2243C50.7793 41.8617 50.726 41.307 50.6193 40.5603ZM65.6103 43.7123H64.6503C64.053 43.7123 63.5303 43.6003 63.0823 43.3763C62.645 43.1417 62.3143 42.843 62.0903 42.4803C61.6637 41.787 61.4503 41.0457 61.4503 40.2563C61.4503 39.467 61.621 38.683 61.9623 37.9043C62.3037 37.1257 62.7303 36.4857 63.2423 35.9843C63.7543 35.4723 64.293 35.0723 64.8583 34.7843C65.4237 34.4857 65.909 34.3363 66.3143 34.3363C66.7197 34.3363 67.077 34.4217 67.3863 34.5923C67.6957 34.763 67.8503 34.9443 67.8503 35.1363C67.8503 35.4563 67.6903 35.6163 67.3703 35.6163C67.2743 35.6163 67.1303 35.563 66.9383 35.4563C66.757 35.3497 66.5383 35.2963 66.2823 35.2963C66.037 35.2963 65.6903 35.419 65.2423 35.6643C64.7943 35.9097 64.357 36.2403 63.9303 36.6563C63.5037 37.0723 63.141 37.611 62.8423 38.2723C62.5543 38.9337 62.4103 39.611 62.4103 40.3043C62.4103 40.987 62.581 41.5683 62.9223 42.0483C63.2743 42.5177 63.8503 42.7523 64.6503 42.7523H65.6103C66.5597 42.7523 67.4023 42.6297 68.1383 42.3843C68.3623 42.3097 68.4903 42.2723 68.5223 42.2723C68.8423 42.2723 69.0023 42.4323 69.0023 42.7523C69.0023 42.987 68.8423 43.1577 68.5223 43.2643C67.6263 43.563 66.6557 43.7123 65.6103 43.7123ZM81.5933 38.5923L81.1773 35.2963C81.1773 34.9763 81.3267 34.8163 81.6253 34.8163C81.924 34.8163 82.0947 34.9763 82.1373 35.2963C82.3827 37.0137 82.5267 38.075 82.5693 38.4803C82.6227 38.875 82.708 39.3603 82.8253 39.9363C83.092 41.2377 83.2253 42.1763 83.2253 42.7523C83.2253 43.0723 83.0653 43.2323 82.7453 43.2323C82.4253 43.2323 82.2653 43.0723 82.2653 42.7523C82.2653 42.2617 82.2227 41.8243 82.1373 41.4403C82.0627 41.0457 81.9933 40.699 81.9293 40.4003C81.876 40.1017 81.8387 39.9097 81.8173 39.8243C81.3053 40.219 80.5 40.4163 79.4013 40.4163C79.4973 41.259 79.5453 41.8777 79.5453 42.2723C79.5453 43.2323 79.1187 43.7123 78.2653 43.7123C77.7427 43.7123 77.3693 43.3923 77.1453 42.7523C76.932 42.1763 76.8253 41.5577 76.8253 40.8963C76.8253 40.427 76.996 40.0697 77.3373 39.8243C77.6893 39.579 78.0253 39.4563 78.3453 39.4563C78.0787 37.1203 77.9453 35.5737 77.9453 34.8163C77.9453 34.4963 78.1053 34.3363 78.4253 34.3363C78.7453 34.3363 78.9053 34.507 78.9053 34.8483C78.9053 35.1897 78.9267 35.627 78.9693 36.1603C79.012 36.7897 79.0973 37.6537 79.2253 38.7523L79.3213 39.4563C80.004 39.4563 80.5533 39.371 80.9693 39.2003C81.3853 39.0297 81.5933 38.827 81.5933 38.5923ZM77.7853 40.9923C77.7853 41.2057 77.828 41.5523 77.9133 42.0323C78.0093 42.5123 78.1267 42.7523 78.2653 42.7523C78.4147 42.7523 78.5053 42.7203 78.5373 42.6563C78.5693 42.5923 78.5853 42.4643 78.5853 42.2723L78.4253 40.4163C78.2547 40.4163 78.1053 40.459 77.9773 40.5443C77.8493 40.6297 77.7853 40.779 77.7853 40.9923ZM94.2163 35.7283C94.5257 34.8003 95.0163 34.3363 95.6883 34.3363C96.2217 34.3363 96.595 34.6563 96.8083 35.2963C97.0003 35.8617 97.251 37.2483 97.5603 39.4563C97.891 39.4137 98.0777 39.3923 98.1203 39.3923C98.4403 39.3923 98.6003 39.5523 98.6003 39.8723C98.6003 40.0003 98.5523 40.107 98.4563 40.1923C98.3603 40.2777 98.2483 40.331 98.1203 40.3523L97.7043 40.4003C97.811 41.2857 97.8643 41.947 97.8643 42.3843C97.8643 42.8217 97.7523 43.1523 97.5283 43.3763C97.3043 43.6003 97.043 43.7123 96.7443 43.7123C96.4563 43.7123 96.179 43.5897 95.9123 43.3443C95.6563 43.099 95.4537 42.8163 95.3043 42.4963C94.9843 41.803 94.8243 41.2857 94.8243 40.9443C94.8243 40.2937 95.4163 39.8457 96.6003 39.6003C96.2697 37.339 96.051 36.059 95.9443 35.7603C95.8483 35.451 95.763 35.2963 95.6883 35.2963C95.475 35.2963 95.2883 35.5363 95.1283 36.0163C94.6377 37.4883 94.3123 38.5443 94.1523 39.1843C93.9923 39.8243 93.8217 40.523 93.6403 41.2803C93.459 42.0377 93.3203 42.5977 93.2243 42.9603C93.139 43.3123 93.059 43.5257 92.9843 43.6003C92.9203 43.675 92.819 43.7123 92.6803 43.7123C92.3603 43.7123 92.2003 43.5523 92.2003 43.2323L92.2323 43.0403C92.371 42.4857 92.531 41.8297 92.7123 41.0723C92.9043 40.315 93.043 39.755 93.1283 39.3923C93.3843 38.3897 93.747 37.1683 94.2163 35.7283ZM96.7443 40.5603C96.1043 40.699 95.7843 40.8537 95.7843 41.0243C95.7843 41.2163 95.907 41.5523 96.1523 42.0323C96.4083 42.5123 96.6057 42.7523 96.7443 42.7523C96.851 42.7523 96.9043 42.5763 96.9043 42.2243C96.9043 41.8617 96.851 41.307 96.7443 40.5603ZM114.135 36.3523C113.197 36.3523 112.429 36.6937 111.831 37.3763C111.234 38.059 110.935 38.891 110.935 39.8723V43.2323C110.935 43.5523 110.775 43.7123 110.455 43.7123C110.135 43.7123 109.975 43.5523 109.975 43.2323V39.8723C109.975 38.923 110.215 38.0697 110.695 37.3123C111.175 36.555 111.789 36.0217 112.535 35.7123C110.935 35.435 109.442 35.2963 108.055 35.2963C107.735 35.2963 107.575 35.1363 107.575 34.8163C107.575 34.4963 107.735 34.3363 108.055 34.3363C109.709 34.3363 111.735 34.5817 114.135 35.0723C114.263 35.0937 114.375 35.1683 114.471 35.2963C114.567 35.4137 114.615 35.5523 114.615 35.7123C114.615 35.8723 114.562 36.0217 114.455 36.1603C114.349 36.2883 114.242 36.3523 114.135 36.3523Z"/>
<path d="M14.6853 50.4323H22.3653V51.3923H14.6853V50.4323ZM30.0603 50.4323H37.7403V51.3923H30.0603V50.4323ZM45.4353 50.4323H53.1153V51.3923H45.4353V50.4323ZM60.8103 50.4323H68.4903V51.3923H60.8103V50.4323ZM76.1853 50.4323H83.8653V51.3923H76.1853V50.4323ZM91.5603 50.4323H99.2403V51.3923H91.5603V50.4323ZM106.935 50.4323H114.615V51.3923H106.935V50.4323Z"/>
</mask>
<path d="M21.8853 36.3523C20.9467 36.3523 20.1787 36.6937 19.5813 37.3763C18.984 38.059 18.6853 38.891 18.6853 39.8723V43.2323C18.6853 43.5523 18.5253 43.7123 18.2053 43.7123C17.8853 43.7123 17.7253 43.5523 17.7253 43.2323V39.8723C17.7253 38.923 17.9653 38.0697 18.4453 37.3123C18.9253 36.555 19.5387 36.0217 20.2853 35.7123C18.6853 35.435 17.192 35.2963 15.8053 35.2963C15.4853 35.2963 15.3253 35.1363 15.3253 34.8163C15.3253 34.4963 15.4853 34.3363 15.8053 34.3363C17.4587 34.3363 19.4853 34.5817 21.8853 35.0723C22.0133 35.0937 22.1253 35.1683 22.2213 35.2963C22.3173 35.4137 22.3653 35.5523 22.3653 35.7123C22.3653 35.8723 22.312 36.0217 22.2053 36.1603C22.0987 36.2883 21.992 36.3523 21.8853 36.3523ZM35.1803 35.3923L34.7003 35.2963C34.3163 35.2963 33.7937 35.3817 33.1323 35.5523C32.471 35.7123 32.1403 35.8723 32.1403 36.0323C32.1403 36.3523 32.487 36.7257 33.1803 37.1523C33.4363 37.3017 33.671 37.5097 33.8843 37.7763C34.1083 38.0323 34.2203 38.2883 34.2203 38.5443C34.2203 38.8003 34.1457 39.0297 33.9963 39.2323C33.8577 39.435 33.719 39.5897 33.5803 39.6963C33.4523 39.7923 33.2977 39.899 33.1163 40.0163C32.935 40.1337 32.823 40.2083 32.7803 40.2403C32.7483 40.2617 32.6897 40.299 32.6043 40.3523L32.4123 40.4803C32.3697 40.5017 32.311 40.539 32.2363 40.5923C32.1723 40.635 32.119 40.6723 32.0763 40.7043C32.0337 40.7257 31.9857 40.7577 31.9323 40.8003C31.8897 40.843 31.8523 40.875 31.8203 40.8963C31.7777 40.9283 31.7457 40.9603 31.7243 40.9923C31.6817 41.0457 31.6603 41.099 31.6603 41.1523C31.6603 41.5043 31.9163 41.8617 32.4283 42.2243C32.951 42.5763 33.5483 42.7523 34.2203 42.7523C35.5963 42.7523 36.6523 42.6297 37.3883 42.3843C37.6123 42.3097 37.7403 42.2723 37.7723 42.2723C38.0923 42.2723 38.2523 42.4323 38.2523 42.7523C38.2523 42.987 38.0923 43.1577 37.7723 43.2643C36.8763 43.563 35.6923 43.7123 34.2203 43.7123C33.2923 43.7123 32.471 43.4457 31.7563 42.9123C31.0523 42.3683 30.7003 41.7817 30.7003 41.1523C30.7003 40.683 31.063 40.2137 31.7883 39.7443C31.8523 39.7017 31.9483 39.6377 32.0763 39.5523C32.215 39.467 32.439 39.3177 32.7483 39.1043C33.0577 38.891 33.2283 38.7203 33.2603 38.5923C33.2603 38.4963 33.1483 38.363 32.9243 38.1923C32.711 38.011 32.4763 37.8297 32.2203 37.6483C31.9643 37.467 31.7243 37.2323 31.5003 36.9443C31.287 36.6457 31.1803 36.3363 31.1803 36.0163C31.1803 35.6857 31.3297 35.403 31.6283 35.1683C31.927 34.923 32.3963 34.7257 33.0363 34.5763C33.6763 34.4163 34.167 34.3363 34.5083 34.3363C34.8603 34.3363 35.1377 34.3897 35.3403 34.4963C35.5537 34.603 35.6603 34.7417 35.6603 34.9123C35.6603 35.2323 35.5003 35.3923 35.1803 35.3923ZM48.0913 35.7283C48.4007 34.8003 48.8913 34.3363 49.5633 34.3363C50.0967 34.3363 50.47 34.6563 50.6833 35.2963C50.8753 35.8617 51.126 37.2483 51.4353 39.4563C51.766 39.4137 51.9527 39.3923 51.9953 39.3923C52.3153 39.3923 52.4753 39.5523 52.4753 39.8723C52.4753 40.0003 52.4273 40.107 52.3313 40.1923C52.2353 40.2777 52.1233 40.331 51.9953 40.3523L51.5793 40.4003C51.686 41.2857 51.7393 41.947 51.7393 42.3843C51.7393 42.8217 51.6273 43.1523 51.4033 43.3763C51.1793 43.6003 50.918 43.7123 50.6193 43.7123C50.3313 43.7123 50.054 43.5897 49.7873 43.3443C49.5313 43.099 49.3287 42.8163 49.1793 42.4963C48.8593 41.803 48.6993 41.2857 48.6993 40.9443C48.6993 40.2937 49.2913 39.8457 50.4753 39.6003C50.1447 37.339 49.926 36.059 49.8193 35.7603C49.7233 35.451 49.638 35.2963 49.5633 35.2963C49.35 35.2963 49.1633 35.5363 49.0033 36.0163C48.5127 37.4883 48.1873 38.5443 48.0273 39.1843C47.8673 39.8243 47.6967 40.523 47.5153 41.2803C47.334 42.0377 47.1953 42.5977 47.0993 42.9603C47.014 43.3123 46.934 43.5257 46.8593 43.6003C46.7953 43.675 46.694 43.7123 46.5553 43.7123C46.2353 43.7123 46.0753 43.5523 46.0753 43.2323L46.1073 43.0403C46.246 42.4857 46.406 41.8297 46.5873 41.0723C46.7793 40.315 46.918 39.755 47.0033 39.3923C47.2593 38.3897 47.622 37.1683 48.0913 35.7283ZM50.6193 40.5603C49.9793 40.699 49.6593 40.8537 49.6593 41.0243C49.6593 41.2163 49.782 41.5523 50.0273 42.0323C50.2833 42.5123 50.4807 42.7523 50.6193 42.7523C50.726 42.7523 50.7793 42.5763 50.7793 42.2243C50.7793 41.8617 50.726 41.307 50.6193 40.5603ZM65.6103 43.7123H64.6503C64.053 43.7123 63.5303 43.6003 63.0823 43.3763C62.645 43.1417 62.3143 42.843 62.0903 42.4803C61.6637 41.787 61.4503 41.0457 61.4503 40.2563C61.4503 39.467 61.621 38.683 61.9623 37.9043C62.3037 37.1257 62.7303 36.4857 63.2423 35.9843C63.7543 35.4723 64.293 35.0723 64.8583 34.7843C65.4237 34.4857 65.909 34.3363 66.3143 34.3363C66.7197 34.3363 67.077 34.4217 67.3863 34.5923C67.6957 34.763 67.8503 34.9443 67.8503 35.1363C67.8503 35.4563 67.6903 35.6163 67.3703 35.6163C67.2743 35.6163 67.1303 35.563 66.9383 35.4563C66.757 35.3497 66.5383 35.2963 66.2823 35.2963C66.037 35.2963 65.6903 35.419 65.2423 35.6643C64.7943 35.9097 64.357 36.2403 63.9303 36.6563C63.5037 37.0723 63.141 37.611 62.8423 38.2723C62.5543 38.9337 62.4103 39.611 62.4103 40.3043C62.4103 40.987 62.581 41.5683 62.9223 42.0483C63.2743 42.5177 63.8503 42.7523 64.6503 42.7523H65.6103C66.5597 42.7523 67.4023 42.6297 68.1383 42.3843C68.3623 42.3097 68.4903 42.2723 68.5223 42.2723C68.8423 42.2723 69.0023 42.4323 69.0023 42.7523C69.0023 42.987 68.8423 43.1577 68.5223 43.2643C67.6263 43.563 66.6557 43.7123 65.6103 43.7123ZM81.5933 38.5923L81.1773 35.2963C81.1773 34.9763 81.3267 34.8163 81.6253 34.8163C81.924 34.8163 82.0947 34.9763 82.1373 35.2963C82.3827 37.0137 82.5267 38.075 82.5693 38.4803C82.6227 38.875 82.708 39.3603 82.8253 39.9363C83.092 41.2377 83.2253 42.1763 83.2253 42.7523C83.2253 43.0723 83.0653 43.2323 82.7453 43.2323C82.4253 43.2323 82.2653 43.0723 82.2653 42.7523C82.2653 42.2617 82.2227 41.8243 82.1373 41.4403C82.0627 41.0457 81.9933 40.699 81.9293 40.4003C81.876 40.1017 81.8387 39.9097 81.8173 39.8243C81.3053 40.219 80.5 40.4163 79.4013 40.4163C79.4973 41.259 79.5453 41.8777 79.5453 42.2723C79.5453 43.2323 79.1187 43.7123 78.2653 43.7123C77.7427 43.7123 77.3693 43.3923 77.1453 42.7523C76.932 42.1763 76.8253 41.5577 76.8253 40.8963C76.8253 40.427 76.996 40.0697 77.3373 39.8243C77.6893 39.579 78.0253 39.4563 78.3453 39.4563C78.0787 37.1203 77.9453 35.5737 77.9453 34.8163C77.9453 34.4963 78.1053 34.3363 78.4253 34.3363C78.7453 34.3363 78.9053 34.507 78.9053 34.8483C78.9053 35.1897 78.9267 35.627 78.9693 36.1603C79.012 36.7897 79.0973 37.6537 79.2253 38.7523L79.3213 39.4563C80.004 39.4563 80.5533 39.371 80.9693 39.2003C81.3853 39.0297 81.5933 38.827 81.5933 38.5923ZM77.7853 40.9923C77.7853 41.2057 77.828 41.5523 77.9133 42.0323C78.0093 42.5123 78.1267 42.7523 78.2653 42.7523C78.4147 42.7523 78.5053 42.7203 78.5373 42.6563C78.5693 42.5923 78.5853 42.4643 78.5853 42.2723L78.4253 40.4163C78.2547 40.4163 78.1053 40.459 77.9773 40.5443C77.8493 40.6297 77.7853 40.779 77.7853 40.9923ZM94.2163 35.7283C94.5257 34.8003 95.0163 34.3363 95.6883 34.3363C96.2217 34.3363 96.595 34.6563 96.8083 35.2963C97.0003 35.8617 97.251 37.2483 97.5603 39.4563C97.891 39.4137 98.0777 39.3923 98.1203 39.3923C98.4403 39.3923 98.6003 39.5523 98.6003 39.8723C98.6003 40.0003 98.5523 40.107 98.4563 40.1923C98.3603 40.2777 98.2483 40.331 98.1203 40.3523L97.7043 40.4003C97.811 41.2857 97.8643 41.947 97.8643 42.3843C97.8643 42.8217 97.7523 43.1523 97.5283 43.3763C97.3043 43.6003 97.043 43.7123 96.7443 43.7123C96.4563 43.7123 96.179 43.5897 95.9123 43.3443C95.6563 43.099 95.4537 42.8163 95.3043 42.4963C94.9843 41.803 94.8243 41.2857 94.8243 40.9443C94.8243 40.2937 95.4163 39.8457 96.6003 39.6003C96.2697 37.339 96.051 36.059 95.9443 35.7603C95.8483 35.451 95.763 35.2963 95.6883 35.2963C95.475 35.2963 95.2883 35.5363 95.1283 36.0163C94.6377 37.4883 94.3123 38.5443 94.1523 39.1843C93.9923 39.8243 93.8217 40.523 93.6403 41.2803C93.459 42.0377 93.3203 42.5977 93.2243 42.9603C93.139 43.3123 93.059 43.5257 92.9843 43.6003C92.9203 43.675 92.819 43.7123 92.6803 43.7123C92.3603 43.7123 92.2003 43.5523 92.2003 43.2323L92.2323 43.0403C92.371 42.4857 92.531 41.8297 92.7123 41.0723C92.9043 40.315 93.043 39.755 93.1283 39.3923C93.3843 38.3897 93.747 37.1683 94.2163 35.7283ZM96.7443 40.5603C96.1043 40.699 95.7843 40.8537 95.7843 41.0243C95.7843 41.2163 95.907 41.5523 96.1523 42.0323C96.4083 42.5123 96.6057 42.7523 96.7443 42.7523C96.851 42.7523 96.9043 42.5763 96.9043 42.2243C96.9043 41.8617 96.851 41.307 96.7443 40.5603ZM114.135 36.3523C113.197 36.3523 112.429 36.6937 111.831 37.3763C111.234 38.059 110.935 38.891 110.935 39.8723V43.2323C110.935 43.5523 110.775 43.7123 110.455 43.7123C110.135 43.7123 109.975 43.5523 109.975 43.2323V39.8723C109.975 38.923 110.215 38.0697 110.695 37.3123C111.175 36.555 111.789 36.0217 112.535 35.7123C110.935 35.435 109.442 35.2963 108.055 35.2963C107.735 35.2963 107.575 35.1363 107.575 34.8163C107.575 34.4963 107.735 34.3363 108.055 34.3363C109.709 34.3363 111.735 34.5817 114.135 35.0723C114.263 35.0937 114.375 35.1683 114.471 35.2963C114.567 35.4137 114.615 35.5523 114.615 35.7123C114.615 35.8723 114.562 36.0217 114.455 36.1603C114.349 36.2883 114.242 36.3523 114.135 36.3523Z" fill="black"/>
<path d="M14.6853 50.4323H22.3653V51.3923H14.6853V50.4323ZM30.0603 50.4323H37.7403V51.3923H30.0603V50.4323ZM45.4353 50.4323H53.1153V51.3923H45.4353V50.4323ZM60.8103 50.4323H68.4903V51.3923H60.8103V50.4323ZM76.1853 50.4323H83.8653V51.3923H76.1853V50.4323ZM91.5603 50.4323H99.2403V51.3923H91.5603V50.4323ZM106.935 50.4323H114.615V51.3923H106.935V50.4323Z" fill="black"/>
<path d="M19.5813 37.3763L20.3339 38.0348L20.3339 38.0348L19.5813 37.3763ZM18.4453 37.3123L19.29 37.8477L19.29 37.8477L18.4453 37.3123ZM20.2853 35.7123L20.6681 36.6362L23.8546 35.3161L20.4561 34.727L20.2853 35.7123ZM21.8853 35.0723L21.685 36.0521L21.7029 36.0557L21.721 36.0587L21.8853 35.0723ZM22.2213 35.2963L21.4213 35.8963L21.434 35.9132L21.4474 35.9296L22.2213 35.2963ZM22.2053 36.1603L22.9736 36.8005L22.9861 36.7855L22.998 36.7701L22.2053 36.1603ZM21.8853 35.3523C20.6698 35.3523 19.6234 35.8097 18.8288 36.7178L20.3339 38.0348C20.734 37.5777 21.2236 37.3523 21.8853 37.3523V35.3523ZM18.8288 36.7178C18.0584 37.5983 17.6853 38.6702 17.6853 39.8723H19.6853C19.6853 39.1118 19.9097 38.5197 20.3339 38.0348L18.8288 36.7178ZM17.6853 39.8723V43.2323H19.6853V39.8723H17.6853ZM17.6853 43.2323C17.6853 43.232 17.685 43.191 17.7067 43.1261C17.7299 43.0564 17.7761 42.9674 17.8582 42.8852C17.9404 42.8031 18.0294 42.7569 18.0991 42.7337C18.164 42.712 18.205 42.7123 18.2053 42.7123V44.7123C18.5195 44.7123 18.9388 44.6331 19.2725 44.2994C19.6061 43.9658 19.6853 43.5465 19.6853 43.2323H17.6853ZM18.2053 42.7123C18.2057 42.7123 18.2467 42.712 18.3116 42.7337C18.3813 42.7569 18.4703 42.8031 18.5525 42.8852C18.6346 42.9674 18.6808 43.0564 18.704 43.1261C18.7257 43.191 18.7253 43.232 18.7253 43.2323H16.7253C16.7253 43.5465 16.8046 43.9658 17.1382 44.2994C17.4719 44.6331 17.8912 44.7123 18.2053 44.7123V42.7123ZM18.7253 43.2323V39.8723H16.7253V43.2323H18.7253ZM18.7253 39.8723C18.7253 39.1009 18.9175 38.4353 19.29 37.8477L17.6007 36.777C17.0132 37.704 16.7253 38.7451 16.7253 39.8723H18.7253ZM19.29 37.8477C19.6723 37.2444 20.1324 36.8581 20.6681 36.6362L19.9026 34.7885C18.945 35.1852 18.1784 35.8656 17.6007 36.777L19.29 37.8477ZM20.4561 34.727C18.809 34.4415 17.258 34.2963 15.8053 34.2963V36.2963C17.1261 36.2963 18.5617 36.4285 20.1146 36.6976L20.4561 34.727ZM15.8053 34.2963C15.8057 34.2963 15.8467 34.296 15.9116 34.3177C15.9813 34.3409 16.0703 34.3871 16.1525 34.4692C16.2346 34.5514 16.2808 34.6404 16.304 34.7101C16.3257 34.775 16.3253 34.816 16.3253 34.8163H14.3253C14.3253 35.1305 14.4046 35.5498 14.7382 35.8834C15.0719 36.2171 15.4912 36.2963 15.8053 36.2963V34.2963ZM16.3253 34.8163C16.3253 34.8167 16.3257 34.8577 16.304 34.9226C16.2808 34.9923 16.2346 35.0813 16.1525 35.1634C16.0703 35.2456 15.9813 35.2918 15.9116 35.315C15.8467 35.3366 15.8057 35.3363 15.8053 35.3363V33.3363C15.4912 33.3363 15.0719 33.4156 14.7382 33.7492C14.4046 34.0829 14.3253 34.5022 14.3253 34.8163H16.3253ZM15.8053 35.3363C17.3676 35.3363 19.3227 35.5691 21.685 36.0521L22.0857 34.0926C19.648 33.5942 17.5497 33.3363 15.8053 33.3363V35.3363ZM21.721 36.0587C21.6402 36.0453 21.5679 36.0145 21.5106 35.9764C21.4564 35.9402 21.4289 35.9064 21.4213 35.8963L23.0213 34.6963C22.8089 34.4131 22.4875 34.1589 22.0497 34.0859L21.721 36.0587ZM21.4474 35.9296C21.4233 35.9001 21.4002 35.8611 21.3844 35.8155C21.3688 35.7705 21.3653 35.7336 21.3653 35.7123H23.3653C23.3653 35.3353 23.246 34.9695 22.9953 34.6631L21.4474 35.9296ZM21.3653 35.7123C21.3653 35.6788 21.3714 35.6423 21.3836 35.608C21.3955 35.5747 21.4089 35.5556 21.4127 35.5506L22.998 36.7701C23.2258 36.4739 23.3653 36.1138 23.3653 35.7123H21.3653ZM21.4371 35.5202C21.4136 35.5484 21.5612 35.3523 21.8853 35.3523V37.3523C22.4228 37.3523 22.7838 37.0283 22.9736 36.8005L21.4371 35.5202ZM35.1803 35.3923L34.9842 36.3729L35.0813 36.3923H35.1803V35.3923ZM34.7003 35.2963L34.8965 34.3158L34.7994 34.2963H34.7003V35.2963ZM33.1323 35.5523L33.3675 36.5243L33.3749 36.5225L33.3822 36.5206L33.1323 35.5523ZM33.1803 37.1523L32.6563 38.004L32.6663 38.0102L32.6765 38.0161L33.1803 37.1523ZM33.8843 37.7763L33.1035 38.401L33.1173 38.4183L33.1318 38.4348L33.8843 37.7763ZM33.9963 39.2323L33.1913 38.6391L33.1809 38.6532L33.171 38.6677L33.9963 39.2323ZM33.5803 39.6963L34.1804 40.4964L34.1901 40.489L33.5803 39.6963ZM33.1163 40.0163L33.6596 40.8559L33.6596 40.8559L33.1163 40.0163ZM32.7803 40.2403L33.3351 41.0724L33.3581 41.057L33.3803 41.0403L32.7803 40.2403ZM32.6043 40.3523L32.0744 39.5043L32.0619 39.5121L32.0496 39.5203L32.6043 40.3523ZM32.4123 40.4803L32.8596 41.3748L32.9152 41.3469L32.967 41.3124L32.4123 40.4803ZM32.2363 40.5923L32.791 41.4244L32.8045 41.4154L32.8176 41.4061L32.2363 40.5923ZM32.0763 40.7043L32.5236 41.5988L32.6042 41.5584L32.6763 41.5043L32.0763 40.7043ZM31.9323 40.8003L31.3077 40.0195L31.2644 40.0541L31.2252 40.0932L31.9323 40.8003ZM31.8203 40.8963L31.2657 40.0643L31.2426 40.0797L31.2203 40.0963L31.8203 40.8963ZM31.7243 40.9923L32.5052 41.617L32.5323 41.5831L32.5564 41.547L31.7243 40.9923ZM32.4283 42.2243L31.8503 43.0404L31.86 43.0472L31.8697 43.0538L32.4283 42.2243ZM37.7723 43.2643L37.4561 42.3157L37.7723 43.2643ZM31.7563 42.9123L31.1449 43.7036L31.1515 43.7088L31.1583 43.7138L31.7563 42.9123ZM31.7883 39.7443L32.3317 40.584L32.343 40.5764L31.7883 39.7443ZM32.0763 39.5523L31.5523 38.7007L31.5368 38.7102L31.5216 38.7203L32.0763 39.5523ZM33.2603 38.5923L34.2305 38.8349L34.2603 38.7154V38.5923H33.2603ZM32.9243 38.1923L32.2767 38.9543L32.2971 38.9716L32.3183 38.9878L32.9243 38.1923ZM32.2203 37.6483L31.6423 38.4644L31.6423 38.4644L32.2203 37.6483ZM31.5003 36.9443L30.6866 37.5256L30.6985 37.5422L30.711 37.5583L31.5003 36.9443ZM31.6283 35.1683L32.2462 35.9547L32.2547 35.948L32.2631 35.9411L31.6283 35.1683ZM33.0363 34.5763L33.2636 35.5502L33.2712 35.5484L33.2789 35.5465L33.0363 34.5763ZM35.3403 34.4963L34.8746 35.3813L34.8838 35.3861L34.8931 35.3908L35.3403 34.4963ZM35.3765 34.4118L34.8965 34.3158L34.5042 36.2769L34.9842 36.3729L35.3765 34.4118ZM34.7003 34.2963C34.191 34.2963 33.5727 34.4059 32.8825 34.5841L33.3822 36.5206C34.0147 36.3574 34.4417 36.2963 34.7003 36.2963V34.2963ZM32.8972 34.5804C32.5453 34.6655 32.215 34.7653 31.9528 34.8922C31.8243 34.9543 31.6563 35.0491 31.5069 35.1937C31.357 35.3388 31.1403 35.6214 31.1403 36.0323H33.1403C33.1403 36.3633 32.965 36.5659 32.8978 36.6309C32.831 36.6955 32.787 36.7104 32.8239 36.6925C32.8924 36.6594 33.0581 36.5992 33.3675 36.5243L32.8972 34.5804ZM31.1403 36.0323C31.1403 36.5581 31.4195 36.9656 31.6676 37.2328C31.9278 37.513 32.2726 37.7679 32.6563 38.004L33.7044 36.3007C33.3947 36.1101 33.2196 35.965 33.1331 35.8719C33.0346 35.7657 33.1403 35.8265 33.1403 36.0323H31.1403ZM32.6765 38.0161C32.8113 38.0948 32.9554 38.216 33.1035 38.401L34.6652 37.1516C34.3866 36.8034 34.0613 36.5086 33.6842 36.2886L32.6765 38.0161ZM33.1318 38.4348C33.1905 38.5019 33.213 38.5447 33.2202 38.5612C33.226 38.5744 33.2203 38.5665 33.2203 38.5443H35.2203C35.2203 37.976 34.9672 37.4953 34.6369 37.1178L33.1318 38.4348ZM33.2203 38.5443C33.2203 38.5908 33.2117 38.6114 33.1913 38.6391L34.8014 39.8255C35.0797 39.4479 35.2203 39.0099 35.2203 38.5443H33.2203ZM33.171 38.6677C33.0698 38.8157 32.9998 38.8813 32.9706 38.9037L34.1901 40.489C34.4383 40.298 34.6456 40.0543 34.8217 39.797L33.171 38.6677ZM32.9803 38.8963C32.8759 38.9747 32.7413 39.068 32.5731 39.1768L33.6596 40.8559C33.8541 40.7301 34.0288 40.61 34.1803 40.4963L32.9803 38.8963ZM32.5731 39.1768C32.4029 39.2869 32.257 39.3828 32.1803 39.4403L33.3803 41.0403C33.3768 41.043 33.3942 41.0303 33.451 40.9924C33.5017 40.9586 33.5708 40.9134 33.6596 40.8559L32.5731 39.1768ZM32.2256 39.4083C32.2075 39.4204 32.1605 39.4505 32.0744 39.5043L33.1343 41.2003C33.2189 41.1475 33.2892 41.1029 33.3351 41.0724L32.2256 39.4083ZM32.0496 39.5203L31.8576 39.6483L32.967 41.3124L33.159 41.1844L32.0496 39.5203ZM31.9651 39.5859C31.8508 39.6431 31.7411 39.7172 31.6551 39.7786L32.8176 41.4061C32.8447 41.3867 32.8628 41.3746 32.8732 41.368C32.8782 41.3648 32.8798 41.3639 32.8784 41.3648C32.8772 41.3655 32.8707 41.3692 32.8596 41.3748L31.9651 39.5859ZM31.6816 39.7603C31.6083 39.8092 31.5387 39.8576 31.4763 39.9043L32.6763 41.5043C32.6993 41.4871 32.7364 41.4609 32.791 41.4244L31.6816 39.7603ZM31.6291 39.8099C31.5029 39.873 31.3945 39.95 31.3077 40.0195L32.557 41.5812C32.5651 41.5748 32.567 41.5738 32.563 41.5764C32.5594 41.5788 32.546 41.5875 32.5236 41.5988L31.6291 39.8099ZM31.2252 40.0932C31.2181 40.1004 31.217 40.101 31.2216 40.0971C31.2255 40.0937 31.2405 40.0811 31.2657 40.0643L32.375 41.7284C32.4836 41.656 32.5733 41.5736 32.6395 41.5074L31.2252 40.0932ZM31.2203 40.0963C31.1194 40.172 30.9957 40.2826 30.8923 40.4376L32.5564 41.547C32.4957 41.6381 32.4359 41.6847 32.4203 41.6963L31.2203 40.0963ZM30.9435 40.3676C30.7994 40.5478 30.6603 40.8148 30.6603 41.1523H32.6603C32.6603 41.3833 32.564 41.5436 32.5052 41.617L30.9435 40.3676ZM30.6603 41.1523C30.6603 42.0145 31.2746 42.6325 31.8503 43.0404L33.0064 41.4083C32.8056 41.2661 32.7073 41.1606 32.6653 41.102C32.6284 41.0504 32.6603 41.0724 32.6603 41.1523H30.6603ZM31.8697 43.0538C32.5687 43.5245 33.3632 43.7523 34.2203 43.7523V41.7523C33.7335 41.7523 33.3334 41.6282 32.9869 41.3949L31.8697 43.0538ZM34.2203 43.7523C35.6342 43.7523 36.8167 43.629 37.7046 43.333L37.0721 41.4357C36.488 41.6304 35.5585 41.7523 34.2203 41.7523V43.7523ZM37.7046 43.333C37.8122 43.2972 37.8863 43.2738 37.9323 43.2603C37.9562 43.2534 37.9627 43.252 37.9576 43.2532C37.9551 43.2538 37.9413 43.257 37.9202 43.2605C37.9093 43.2623 37.8923 43.2649 37.8707 43.2672C37.8506 43.2693 37.816 43.2723 37.7723 43.2723V41.2723C37.6349 41.2723 37.5171 41.3022 37.5031 41.3055C37.458 41.316 37.4125 41.3286 37.3723 41.3403C37.2904 41.3642 37.1885 41.3969 37.0721 41.4357L37.7046 43.333ZM37.7723 43.2723C37.772 43.2723 37.731 43.2726 37.6661 43.251C37.5964 43.2278 37.5074 43.1816 37.4252 43.0994C37.3431 43.0173 37.2969 42.9283 37.2737 42.8586C37.252 42.7937 37.2523 42.7527 37.2523 42.7523H39.2523C39.2523 42.4382 39.1731 42.0189 38.8395 41.6852C38.5058 41.3516 38.0865 41.2723 37.7723 41.2723V43.2723ZM37.2523 42.7523C37.2523 42.6951 37.2626 42.6242 37.2922 42.5492C37.3218 42.4741 37.363 42.4149 37.4028 42.3724C37.4756 42.2948 37.5236 42.2932 37.4561 42.3157L38.0886 44.213C38.3411 44.1289 38.6291 43.9886 38.8619 43.7403C39.1163 43.469 39.2523 43.1229 39.2523 42.7523H37.2523ZM37.4561 42.3157C36.7025 42.5669 35.6379 42.7123 34.2203 42.7123V44.7123C35.7468 44.7123 37.0502 44.5592 38.0886 44.213L37.4561 42.3157ZM34.2203 42.7123C33.4985 42.7123 32.889 42.5098 32.3544 42.1109L31.1583 43.7138C32.0531 44.3815 33.0862 44.7123 34.2203 44.7123V42.7123ZM32.3678 42.1211C31.8018 41.6837 31.7003 41.3581 31.7003 41.1523H29.7003C29.7003 42.2053 30.3028 43.053 31.1449 43.7036L32.3678 42.1211ZM31.7003 41.1523C31.7003 41.1917 31.6814 41.1662 31.7636 41.0598C31.852 40.9455 32.0245 40.7826 32.3316 40.5839L31.2451 38.9048C30.4673 39.408 29.7003 40.138 29.7003 41.1523H31.7003ZM32.343 40.5764C32.407 40.5337 32.503 40.4697 32.631 40.3844L31.5216 38.7203C31.3936 38.8056 31.2976 38.8696 31.2336 38.9123L32.343 40.5764ZM32.6004 40.404C32.7633 40.3038 33.006 40.1414 33.3161 39.9276L32.1806 38.2811C31.872 38.4939 31.6667 38.6302 31.5523 38.7007L32.6004 40.404ZM33.3161 39.9276C33.4964 39.8032 33.6705 39.6684 33.8155 39.5234C33.9382 39.4007 34.1474 39.1674 34.2305 38.8349L32.2902 38.3498C32.3051 38.2903 32.3243 38.243 32.3406 38.209C32.3569 38.1751 32.3724 38.1502 32.3829 38.1348C32.4025 38.1059 32.4132 38.0973 32.4012 38.1092C32.3906 38.1199 32.3682 38.1406 32.3297 38.1715C32.2917 38.2019 32.2426 38.2384 32.1806 38.2811L33.3161 39.9276ZM34.2603 38.5923C34.2603 38.1818 34.04 37.8937 33.9421 37.7771C33.8187 37.6303 33.6699 37.5032 33.5304 37.3969L32.3183 38.9878C32.4028 39.0522 32.422 39.0771 32.4106 39.0635C32.4038 39.0554 32.3729 39.0179 32.3408 38.9522C32.309 38.8872 32.2603 38.762 32.2603 38.5923H34.2603ZM33.572 37.4304C33.3338 37.2279 33.0756 37.0287 32.7984 36.8323L31.6423 38.4644C31.8771 38.6307 32.0882 38.7941 32.2767 38.9543L33.572 37.4304ZM32.7984 36.8323C32.6341 36.716 32.4631 36.5533 32.2897 36.3304L30.711 37.5583C30.9856 37.9113 31.2946 38.218 31.6423 38.4644L32.7984 36.8323ZM32.3141 36.3631C32.2034 36.2082 32.1803 36.0983 32.1803 36.0163H30.1803C30.1803 36.5744 30.3706 37.0832 30.6866 37.5256L32.3141 36.3631ZM32.1803 36.0163C32.1803 36.0096 32.181 36.0095 32.18 36.0139C32.1789 36.0184 32.1772 36.0221 32.1765 36.0235C32.1746 36.0271 32.1866 36.0015 32.2462 35.9547L31.0105 34.382C30.5111 34.7744 30.1803 35.3307 30.1803 36.0163H32.1803ZM32.2631 35.9411C32.3875 35.8388 32.6821 35.6859 33.2636 35.5502L32.8091 33.6025C32.1106 33.7655 31.4665 34.0072 30.9936 34.3956L32.2631 35.9411ZM33.2789 35.5465C33.8987 35.3915 34.293 35.3363 34.5083 35.3363V33.3363C34.0411 33.3363 33.454 33.4411 32.7938 33.6062L33.2789 35.5465ZM34.5083 35.3363C34.6357 35.3363 34.7281 35.3461 34.7915 35.3583C34.8552 35.3706 34.8778 35.3829 34.8746 35.3813L35.8061 33.6114C35.4031 33.3993 34.9433 33.3363 34.5083 33.3363V35.3363ZM34.8931 35.3908C34.9111 35.3998 34.8537 35.3758 34.7877 35.2901C34.7102 35.1893 34.6603 35.0534 34.6603 34.9123H36.6603C36.6603 34.2163 36.1849 33.8006 35.7876 33.6019L34.8931 35.3908ZM34.6603 34.9123C34.6603 34.912 34.66 34.871 34.6817 34.8061C34.7049 34.7364 34.7511 34.6474 34.8332 34.5652C34.9154 34.4831 35.0044 34.4369 35.0741 34.4137C35.139 34.392 35.18 34.3923 35.1803 34.3923V36.3923C35.4945 36.3923 35.9138 36.3131 36.2475 35.9794C36.5811 35.6458 36.6603 35.2265 36.6603 34.9123H34.6603ZM48.0913 35.7283L47.1426 35.4121L47.1406 35.4185L48.0913 35.7283ZM50.6833 35.2963L49.7347 35.6126L49.7365 35.6179L50.6833 35.2963ZM51.4353 39.4563L50.445 39.5951L50.5823 40.5747L51.5633 40.4481L51.4353 39.4563ZM51.9953 40.3523L52.11 41.3458L52.1349 41.3429L52.1597 41.3387L51.9953 40.3523ZM51.5793 40.4003L51.4647 39.4069L50.4663 39.5221L50.5865 40.52L51.5793 40.4003ZM49.7873 43.3443L49.0954 44.0663L49.1028 44.0734L49.1103 44.0803L49.7873 43.3443ZM49.1793 42.4963L48.2714 42.9154L48.2732 42.9192L49.1793 42.4963ZM50.4753 39.6003L50.6782 40.5795L51.6012 40.3883L51.4648 39.4557L50.4753 39.6003ZM49.8193 35.7603L48.8643 36.0567L48.8705 36.0768L48.8776 36.0967L49.8193 35.7603ZM49.0033 36.0163L48.0547 35.7001L48.0547 35.7001L49.0033 36.0163ZM48.0273 39.1843L47.0572 38.9418L47.0572 38.9418L48.0273 39.1843ZM47.5153 41.2803L48.4879 41.5132L48.4879 41.5132L47.5153 41.2803ZM47.0993 42.9603L46.1326 42.7044L46.13 42.7146L46.1275 42.7247L47.0993 42.9603ZM46.8593 43.6003L46.1522 42.8932L46.1251 42.9204L46.1001 42.9496L46.8593 43.6003ZM46.0753 43.2323L45.089 43.0679L45.0753 43.1496V43.2323H46.0753ZM46.1073 43.0403L45.1372 42.7978L45.1275 42.8365L45.121 42.8759L46.1073 43.0403ZM46.5873 41.0723L45.6179 40.8266L45.6148 40.8395L46.5873 41.0723ZM47.0033 39.3923L46.0344 39.145L46.0321 39.1541L46.0299 39.1633L47.0033 39.3923ZM50.6193 40.5603L51.6093 40.4189L51.4574 39.3556L50.4076 39.583L50.6193 40.5603ZM50.0273 42.0323L49.1369 42.4875L49.1409 42.4952L49.145 42.5029L50.0273 42.0323ZM49.04 36.0446C49.1644 35.6715 49.2944 35.4904 49.3784 35.4109C49.4391 35.3535 49.4843 35.3363 49.5633 35.3363V33.3363C48.9704 33.3363 48.4343 33.5511 48.0043 33.9578C47.5976 34.3423 47.3276 34.8572 47.1427 35.4121L49.04 36.0446ZM49.5633 35.3363C49.5956 35.3363 49.6051 35.341 49.6005 35.3393C49.5948 35.3373 49.5908 35.3341 49.5926 35.3356C49.5996 35.3416 49.6648 35.4031 49.7347 35.6126L51.632 34.9801C51.4885 34.5496 51.2604 34.131 50.8941 33.8171C50.5103 33.4881 50.0469 33.3363 49.5633 33.3363V35.3363ZM49.7365 35.6179C49.8916 36.0747 50.1314 37.3562 50.445 39.5951L52.4257 39.3176C52.1207 37.1404 51.8591 35.6486 51.6302 34.9748L49.7365 35.6179ZM51.5633 40.4481C51.7269 40.427 51.8507 40.4117 51.9369 40.4019C51.9803 40.3969 52.0102 40.3938 52.029 40.392C52.0384 40.3912 52.0416 40.391 52.0402 40.3911C52.0394 40.3911 52.0356 40.3914 52.0296 40.3916C52.0243 40.3919 52.012 40.3923 51.9953 40.3923V38.3923C51.9033 38.3923 51.7783 38.407 51.7098 38.4148C51.6093 38.4263 51.4745 38.443 51.3074 38.4646L51.5633 40.4481ZM51.9953 40.3923C51.995 40.3923 51.954 40.3926 51.8891 40.371C51.8194 40.3478 51.7304 40.3016 51.6482 40.2194C51.5661 40.1373 51.5199 40.0483 51.4967 39.9786C51.475 39.9137 51.4753 39.8727 51.4753 39.8723H53.4753C53.4753 39.5582 53.3961 39.1389 53.0625 38.8052C52.7288 38.4716 52.3095 38.3923 51.9953 38.3923V40.3923ZM51.4753 39.8723C51.4753 39.8083 51.4881 39.7254 51.5274 39.638C51.5667 39.5506 51.6201 39.4866 51.667 39.4449L52.9957 40.9398C53.3044 40.6654 53.4753 40.2871 53.4753 39.8723H51.4753ZM51.667 39.4449C51.6869 39.4272 51.7134 39.4087 51.7454 39.3935C51.7774 39.3782 51.8072 39.3699 51.8309 39.3659L52.1597 41.3387C52.4716 41.2868 52.7574 41.1516 52.9957 40.9398L51.667 39.4449ZM51.8807 39.3589L51.4647 39.4069L51.694 41.3938L52.11 41.3458L51.8807 39.3589ZM50.5865 40.52C50.6923 41.3975 50.7393 42.0097 50.7393 42.3843H52.7393C52.7393 41.8843 52.6798 41.1739 52.5722 40.2807L50.5865 40.52ZM50.7393 42.3843C50.7393 42.5203 50.7216 42.5999 50.7082 42.6395C50.6964 42.6744 50.6889 42.6766 50.6962 42.6692L52.1105 44.0834C52.584 43.6099 52.7393 42.9839 52.7393 42.3843H50.7393ZM50.6962 42.6692C50.6639 42.7015 50.6465 42.7087 50.6454 42.7092C50.644 42.7098 50.6426 42.7103 50.6402 42.7108C50.6377 42.7113 50.6312 42.7123 50.6193 42.7123V44.7123C51.2006 44.7123 51.7115 44.4824 52.1105 44.0834L50.6962 42.6692ZM50.6193 42.7123C50.6189 42.7123 50.6187 42.7124 50.6174 42.7121C50.616 42.7118 50.6103 42.7104 50.5999 42.7058C50.5785 42.6964 50.5325 42.6711 50.4644 42.6084L49.1103 44.0803C49.5119 44.4498 50.0204 44.7123 50.6193 44.7123V42.7123ZM50.4793 42.6224C50.3122 42.4622 50.1823 42.2809 50.0855 42.0735L48.2732 42.9192C48.475 43.3518 48.7505 43.7358 49.0954 44.0663L50.4793 42.6224ZM50.0873 42.0773C49.771 41.3919 49.6993 41.0486 49.6993 40.9443H47.6993C47.6993 41.5228 47.9477 42.2141 48.2714 42.9154L50.0873 42.0773ZM49.6993 40.9443C49.6993 40.9399 49.6986 40.9539 49.6907 40.9687C49.6849 40.9793 49.6918 40.9594 49.7468 40.9177C49.8728 40.8224 50.1509 40.6888 50.6782 40.5795L50.2725 38.6211C49.6158 38.7572 49.0059 38.9703 48.5399 39.3229C48.0343 39.7056 47.6993 40.2586 47.6993 40.9443H49.6993ZM51.4648 39.4557C51.2991 38.322 51.1604 37.4276 51.0491 36.7759C50.9455 36.1697 50.8505 35.6743 50.7611 35.424L48.8776 36.0967C48.8743 36.0874 48.88 36.1026 48.8939 36.1586C48.9065 36.2097 48.9222 36.2793 48.9409 36.3702C48.9784 36.5518 49.0239 36.7981 49.0776 37.1127C49.185 37.7411 49.321 38.6173 49.4859 39.745L51.4648 39.4557ZM50.7744 35.4639C50.72 35.2885 50.6509 35.096 50.5589 34.9293C50.5142 34.8482 50.4373 34.7232 50.3164 34.6064C50.2 34.4939 49.9443 34.2963 49.5633 34.2963V36.2963C49.2198 36.2963 49.0027 36.1182 48.9263 36.0443C48.8454 35.9661 48.8098 35.8991 48.8078 35.8954C48.8011 35.8834 48.8227 35.9228 48.8643 36.0567L50.7744 35.4639ZM49.5633 34.2963C49.0324 34.2963 48.6721 34.6077 48.474 34.8624C48.28 35.1118 48.15 35.4141 48.0547 35.7001L49.952 36.3326C49.982 36.2427 50.0085 36.1785 50.0294 36.1352C50.0509 36.0903 50.0606 36.0801 50.0527 36.0903C50.0454 36.0997 50.0055 36.1493 49.9228 36.1988C49.8324 36.2531 49.708 36.2963 49.5633 36.2963V34.2963ZM48.0547 35.7001C47.5638 37.1728 47.2274 38.261 47.0572 38.9418L48.9975 39.4269C49.1473 38.8277 49.4616 37.8038 49.952 36.3326L48.0547 35.7001ZM47.0572 38.9418C46.8963 39.5855 46.7248 40.2875 46.5428 41.0475L48.4879 41.5132C48.6686 40.7585 48.8384 40.0631 48.9975 39.4269L47.0572 38.9418ZM46.5428 41.0475C46.3618 41.8034 46.2254 42.3539 46.1326 42.7044L48.0661 43.2162C48.1653 42.8415 48.3062 42.2719 48.4879 41.5132L46.5428 41.0475ZM46.1275 42.7247C46.0895 42.8815 46.0591 42.9796 46.039 43.0332C46.0291 43.0597 46.0271 43.0605 46.0354 43.0452C46.0399 43.0368 46.0499 43.0189 46.0665 42.9951C46.0825 42.972 46.1104 42.9351 46.1522 42.8932L47.5665 44.3074C47.7671 44.1068 47.8664 43.8562 47.9117 43.7355C47.9716 43.5758 48.0239 43.3912 48.0712 43.1959L46.1275 42.7247ZM46.1001 42.9496C46.2943 42.723 46.5263 42.7123 46.5553 42.7123V44.7123C46.8617 44.7123 47.2964 44.627 47.6186 44.2511L46.1001 42.9496ZM46.5553 42.7123C46.5557 42.7123 46.5967 42.712 46.6616 42.7337C46.7313 42.7569 46.8203 42.8031 46.9025 42.8852C46.9846 42.9674 47.0308 43.0564 47.054 43.1261C47.0757 43.191 47.0753 43.232 47.0753 43.2323H45.0753C45.0753 43.5465 45.1546 43.9658 45.4882 44.2994C45.8219 44.6331 46.2412 44.7123 46.5553 44.7123V42.7123ZM47.0617 43.3967L47.0937 43.2047L45.121 42.8759L45.089 43.0679L47.0617 43.3967ZM47.0775 43.2829C47.2172 42.7241 47.378 42.0647 47.5599 41.3052L45.6148 40.8395C45.434 41.5947 45.2748 42.2473 45.1372 42.7978L47.0775 43.2829ZM47.5567 41.3181C47.7489 40.5598 47.8894 39.9929 47.9768 39.6214L46.0299 39.1633C45.9467 39.5171 45.8098 40.0702 45.618 40.8266L47.5567 41.3181ZM47.9723 39.6397C48.2211 38.6653 48.5767 37.4661 49.0421 36.0382L47.1406 35.4185C46.6673 36.8706 46.2976 38.1141 46.0344 39.145L47.9723 39.6397ZM50.4076 39.583C50.0634 39.6576 49.7316 39.7507 49.4642 39.88C49.3319 39.9439 49.1588 40.0431 49.0064 40.1981C48.8463 40.3609 48.6593 40.6405 48.6593 41.0243H50.6593C50.6593 41.3228 50.5124 41.5191 50.4323 41.6006C50.3598 41.6742 50.3068 41.6941 50.3345 41.6807C50.3871 41.6553 50.5353 41.6018 50.8311 41.5377L50.4076 39.583ZM48.6593 41.0243C48.6593 41.2985 48.739 41.5633 48.812 41.7633C48.8924 41.9836 49.004 42.2273 49.1369 42.4875L50.9178 41.5772C50.8054 41.3573 50.7329 41.1931 50.6907 41.0774C50.6698 41.0203 50.6602 40.9853 50.6564 40.969C50.6519 40.9495 50.6593 40.9722 50.6593 41.0243H48.6593ZM49.145 42.5029C49.2847 42.7648 49.4343 43.0121 49.5949 43.2074C49.6749 43.3047 49.7837 43.4215 49.9231 43.5211C50.0561 43.6161 50.2969 43.7523 50.6193 43.7523V41.7523C50.8724 41.7523 51.0366 41.8586 51.0856 41.8936C51.141 41.9332 51.1585 41.96 51.1398 41.9372C51.1249 41.9191 51.0964 41.8809 51.0546 41.8145C51.0136 41.7495 50.9653 41.6661 50.9097 41.5618L49.145 42.5029ZM50.6193 43.7523C51.3922 43.7523 51.6473 43.0721 51.6964 42.9103C51.7668 42.6778 51.7793 42.4262 51.7793 42.2243H49.7793C49.7793 42.3745 49.7652 42.3869 49.7823 42.3303C49.7908 42.3022 49.8299 42.1782 49.9494 42.0467C50.0947 41.8868 50.3302 41.7523 50.6193 41.7523V43.7523ZM51.7793 42.2243C51.7793 41.7869 51.7171 41.1737 51.6093 40.4189L49.6294 40.7018C49.7349 41.4403 49.7793 41.9365 49.7793 42.2243H51.7793ZM63.0823 43.3763L62.6095 44.2575L62.6222 44.2643L62.6351 44.2708L63.0823 43.3763ZM62.0903 42.4803L61.2387 43.0044L61.2396 43.0058L62.0903 42.4803ZM61.9623 37.9043L62.8782 38.3058L62.8782 38.3058L61.9623 37.9043ZM63.2423 35.9843L63.942 36.6989L63.9495 36.6914L63.2423 35.9843ZM64.8583 34.7843L65.3123 35.6754L65.3189 35.672L65.3255 35.6685L64.8583 34.7843ZM67.3863 34.5923L67.8694 33.7168L67.8694 33.7168L67.3863 34.5923ZM66.9383 35.4563L66.4313 36.3183L66.4419 36.3245L66.4527 36.3305L66.9383 35.4563ZM65.2423 35.6643L64.762 34.7872L65.2423 35.6643ZM62.8423 38.2723L61.9309 37.8607L61.9255 37.8731L62.8423 38.2723ZM62.9223 42.0483L62.1074 42.6279L62.1147 42.6382L62.1223 42.6483L62.9223 42.0483ZM68.5223 43.2643L68.2061 42.3157L68.5223 43.2643ZM65.6103 42.7123H64.6503V44.7123H65.6103V42.7123ZM64.6503 42.7123C64.1786 42.7123 63.8144 42.6243 63.5296 42.4819L62.6351 44.2708C63.2463 44.5763 63.9274 44.7123 64.6503 44.7123V42.7123ZM63.5552 42.4952C63.2472 42.3299 63.0584 42.1447 62.9411 41.9548L61.2396 43.0058C61.5703 43.5413 62.0429 43.9534 62.6095 44.2575L63.5552 42.4952ZM62.942 41.9562C62.6091 41.4153 62.4503 40.8546 62.4503 40.2563H60.4503C60.4503 41.2367 60.7182 42.1587 61.2387 43.0044L62.942 41.9562ZM62.4503 40.2563C62.4503 39.6156 62.588 38.9678 62.8782 38.3058L61.0465 37.5029C60.654 38.3982 60.4503 39.3184 60.4503 40.2563H62.4503ZM62.8782 38.3058C63.1776 37.6229 63.5368 37.0956 63.942 36.6989L62.5427 35.2698C61.9239 35.8757 61.4298 36.6284 61.0465 37.5029L62.8782 38.3058ZM63.9495 36.6914C64.3975 36.2434 64.8526 35.9095 65.3123 35.6754L64.4044 33.8933C63.7334 34.2351 63.1112 34.7013 62.5352 35.2772L63.9495 36.6914ZM65.3255 35.6685C65.8217 35.4064 66.1395 35.3363 66.3143 35.3363V33.3363C65.6786 33.3363 65.0256 33.565 64.3912 33.9001L65.3255 35.6685ZM66.3143 35.3363C66.5759 35.3363 66.7624 35.3902 66.9033 35.4679L67.8694 33.7168C67.3916 33.4531 66.8635 33.3363 66.3143 33.3363V35.3363ZM66.9033 35.4679C66.9985 35.5205 67.0025 35.5392 66.9735 35.5053C66.9561 35.4849 66.9247 35.4427 66.8975 35.3771C66.8692 35.3089 66.8503 35.2265 66.8503 35.1363H68.8503C68.8503 34.3529 68.2302 33.9158 67.8694 33.7168L66.9033 35.4679ZM66.8503 35.1363C66.8503 35.136 66.85 35.095 66.8717 35.0301C66.8949 34.9604 66.9411 34.8714 67.0232 34.7892C67.1054 34.7071 67.1944 34.6609 67.2641 34.6377C67.329 34.616 67.37 34.6163 67.3703 34.6163V36.6163C67.6845 36.6163 68.1038 36.5371 68.4375 36.2034C68.7711 35.8698 68.8503 35.4505 68.8503 35.1363H66.8503ZM67.3703 34.6163C67.4043 34.6163 67.4327 34.6187 67.4546 34.6214C67.4766 34.6241 67.494 34.6274 67.5063 34.6302C67.5299 34.6354 67.5411 34.6399 67.5377 34.6386C67.5348 34.6375 67.5237 34.6332 67.5033 34.6235C67.4831 34.6139 67.4569 34.6005 67.424 34.5822L66.4527 36.3305C66.6479 36.439 66.9925 36.6163 67.3703 36.6163V34.6163ZM67.4454 34.5944C67.0802 34.3796 66.678 34.2963 66.2823 34.2963V36.2963C66.3412 36.2963 66.3794 36.3025 66.4014 36.3079C66.4225 36.313 66.4305 36.3178 66.4313 36.3183L67.4454 34.5944ZM66.2823 34.2963C65.7676 34.2963 65.2304 34.5308 64.762 34.7872L65.7227 36.5414C65.9162 36.4354 66.0644 36.3691 66.1719 36.3311C66.2862 36.2906 66.315 36.2963 66.2823 36.2963V34.2963ZM64.762 34.7872C64.2225 35.0827 63.7133 35.4713 63.2322 35.9403L64.6284 37.3723C65.0007 37.0094 65.3662 36.7367 65.7227 36.5414L64.762 34.7872ZM63.2322 35.9403C62.6989 36.4603 62.2702 37.1096 61.931 37.8608L63.7537 38.6839C64.0118 38.1124 64.3084 37.6844 64.6284 37.3723L63.2322 35.9403ZM61.9255 37.8731C61.5849 38.6552 61.4103 39.4681 61.4103 40.3043H63.4103C63.4103 39.754 63.5238 39.2122 63.7592 38.6716L61.9255 37.8731ZM61.4103 40.3043C61.4103 41.1606 61.6273 41.9528 62.1074 42.6279L63.7373 41.4688C63.5347 41.1839 63.4103 40.8134 63.4103 40.3043H61.4103ZM62.1223 42.6483C62.7265 43.4539 63.6587 43.7523 64.6503 43.7523V41.7523C64.042 41.7523 63.8222 41.5814 63.7223 41.4483L62.1223 42.6483ZM64.6503 43.7523H65.6103V41.7523H64.6503V43.7523ZM65.6103 43.7523C66.644 43.7523 67.5967 43.619 68.4546 43.333L67.8221 41.4357C67.2079 41.6404 66.4754 41.7523 65.6103 41.7523V43.7523ZM68.4546 43.333C68.5622 43.2972 68.6363 43.2738 68.6823 43.2603C68.7062 43.2534 68.7127 43.252 68.7076 43.2532C68.7051 43.2538 68.6913 43.257 68.6702 43.2605C68.6593 43.2623 68.6423 43.2649 68.6207 43.2672C68.6006 43.2693 68.566 43.2723 68.5223 43.2723V41.2723C68.3849 41.2723 68.2671 41.3022 68.2531 41.3055C68.208 41.316 68.1625 41.3286 68.1223 41.3403C68.0404 41.3642 67.9385 41.3969 67.8221 41.4357L68.4546 43.333ZM68.5223 43.2723C68.522 43.2723 68.481 43.2726 68.4161 43.251C68.3464 43.2278 68.2574 43.1816 68.1752 43.0994C68.0931 43.0173 68.0469 42.9283 68.0237 42.8586C68.002 42.7937 68.0023 42.7527 68.0023 42.7523H70.0023C70.0023 42.4382 69.9231 42.0189 69.5895 41.6852C69.2558 41.3516 68.8365 41.2723 68.5223 41.2723V43.2723ZM68.0023 42.7523C68.0023 42.6951 68.0126 42.6242 68.0422 42.5492C68.0718 42.4741 68.113 42.4149 68.1528 42.3724C68.2256 42.2948 68.2736 42.2932 68.2061 42.3157L68.8386 44.213C69.0911 44.1289 69.3791 43.9886 69.6119 43.7403C69.8663 43.469 70.0023 43.1229 70.0023 42.7523H68.0023ZM68.2061 42.3157C67.4224 42.5769 66.5596 42.7123 65.6103 42.7123V44.7123C66.7518 44.7123 67.8303 44.5491 68.8386 44.213L68.2061 42.3157ZM81.5933 38.5923H82.5933V38.5295L82.5855 38.4671L81.5933 38.5923ZM81.1773 35.2963H80.1773V35.3592L80.1852 35.4216L81.1773 35.2963ZM82.1373 35.2963L81.1461 35.4285L81.1474 35.4378L82.1373 35.2963ZM82.5693 38.4803L81.5748 38.585L81.5764 38.5997L81.5784 38.6143L82.5693 38.4803ZM82.8253 39.9363L81.8455 40.1359L81.8457 40.1371L82.8253 39.9363ZM82.1373 41.4403L81.1548 41.6262L81.1577 41.6418L81.1612 41.6573L82.1373 41.4403ZM81.9293 40.4003L80.9449 40.5761L80.9479 40.5931L80.9515 40.6099L81.9293 40.4003ZM81.8173 39.8243L82.7875 39.5818L82.4169 38.0996L81.2068 39.0323L81.8173 39.8243ZM79.4013 40.4163V39.4163H78.281L78.4078 40.5295L79.4013 40.4163ZM77.1453 42.7523L78.0892 42.422L78.0862 42.4135L78.0831 42.405L77.1453 42.7523ZM77.3373 39.8243L76.7656 39.0039L76.7596 39.0081L76.7537 39.0123L77.3373 39.8243ZM78.3453 39.4563V40.4563H79.466L79.3389 39.3429L78.3453 39.4563ZM78.9693 36.1603L79.9671 36.0927L79.9662 36.0806L78.9693 36.1603ZM79.2253 38.7523L78.2321 38.8681L78.2332 38.8778L78.2345 38.8875L79.2253 38.7523ZM79.3213 39.4563L78.3305 39.5915L78.4485 40.4563H79.3213V39.4563ZM77.9133 42.0323L76.9288 42.2074L76.9307 42.2179L76.9328 42.2285L77.9133 42.0323ZM78.5373 42.6563L77.6429 42.2091L77.6429 42.2091L78.5373 42.6563ZM78.5853 42.2723H79.5853V42.2293L79.5817 42.1865L78.5853 42.2723ZM78.4253 40.4163L79.4217 40.3305L79.3429 39.4163H78.4253V40.4163ZM82.5855 38.4671L82.1695 35.1711L80.1852 35.4216L80.6012 38.7176L82.5855 38.4671ZM82.1773 35.2963C82.1773 35.274 82.1839 35.4434 82.0204 35.6187C81.8447 35.8069 81.6485 35.8163 81.6253 35.8163V33.8163C81.3035 33.8163 80.8833 33.9058 80.5583 34.254C80.2454 34.5892 80.1773 34.9987 80.1773 35.2963H82.1773ZM81.6253 35.8163C81.5936 35.8163 81.4406 35.8039 81.2934 35.6659C81.1565 35.5375 81.1438 35.411 81.1461 35.4285L83.1286 35.1642C83.0882 34.8617 82.9689 34.4952 82.6613 34.2068C82.3434 33.9088 81.9557 33.8163 81.6253 33.8163V35.8163ZM81.1474 35.4378C81.3938 37.1627 81.5346 38.2025 81.5748 38.585L83.5639 38.3757C83.5188 37.9476 83.3715 36.8646 83.1273 35.1549L81.1474 35.4378ZM81.5784 38.6143C81.6357 39.0386 81.7256 39.5474 81.8455 40.1359L83.8052 39.7367C83.6905 39.1733 83.6097 38.7114 83.5603 38.3464L81.5784 38.6143ZM81.8457 40.1371C82.1117 41.4353 82.2253 42.2868 82.2253 42.7523H84.2253C84.2253 42.0659 84.0723 41.0401 83.805 39.7356L81.8457 40.1371ZM82.2253 42.7523C82.2253 42.752 82.225 42.711 82.2467 42.6461C82.2699 42.5764 82.3161 42.4874 82.3982 42.4052C82.4804 42.3231 82.5694 42.2769 82.6391 42.2537C82.704 42.232 82.745 42.2323 82.7453 42.2323V44.2323C83.0595 44.2323 83.4788 44.1531 83.8125 43.8194C84.1461 43.4858 84.2253 43.0665 84.2253 42.7523H82.2253ZM82.7453 42.2323C82.7457 42.2323 82.7867 42.232 82.8516 42.2537C82.9213 42.2769 83.0103 42.3231 83.0925 42.4052C83.1746 42.4874 83.2208 42.5764 83.244 42.6461C83.2657 42.711 83.2653 42.752 83.2653 42.7523H81.2653C81.2653 43.0665 81.3446 43.4858 81.6782 43.8194C82.0119 44.1531 82.4312 44.2323 82.7453 44.2323V42.2323ZM83.2653 42.7523C83.2653 42.2058 83.218 41.6936 83.1135 41.2234L81.1612 41.6573C81.2273 41.9551 81.2653 42.3175 81.2653 42.7523H83.2653ZM83.1199 41.2544C83.0442 40.8542 82.9733 40.4993 82.9072 40.1908L80.9515 40.6099C81.0134 40.8987 81.0812 41.2372 81.1548 41.6262L83.1199 41.2544ZM82.9138 40.2245C82.8621 39.935 82.8188 39.7068 82.7875 39.5818L80.8472 40.0669C80.8586 40.1125 80.89 40.2684 80.9449 40.5761L82.9138 40.2245ZM81.2068 39.0323C80.9552 39.2263 80.419 39.4163 79.4013 39.4163V41.4163C80.581 41.4163 81.6555 41.2117 82.4279 40.6164L81.2068 39.0323ZM78.4078 40.5295C78.5032 41.3671 78.5453 41.9381 78.5453 42.2723H80.5453C80.5453 41.8172 80.4915 41.1509 80.3949 40.3031L78.4078 40.5295ZM78.5453 42.2723C78.5453 42.6253 78.4644 42.7033 78.4779 42.688C78.4862 42.6787 78.4921 42.6793 78.4742 42.686C78.4505 42.6949 78.3874 42.7123 78.2653 42.7123V44.7123C78.8787 44.7123 79.5126 44.5344 79.9728 44.0167C80.413 43.5214 80.5453 42.8794 80.5453 42.2723H78.5453ZM78.2653 42.7123C78.238 42.7123 78.2316 42.7084 78.2377 42.7106C78.2446 42.7131 78.2479 42.7163 78.2441 42.7131C78.2325 42.7031 78.1641 42.6359 78.0892 42.422L76.2015 43.0827C76.3506 43.5087 76.5808 43.9215 76.9426 44.2316C77.3225 44.5572 77.7816 44.7123 78.2653 44.7123V42.7123ZM78.0831 42.405C77.914 41.9484 77.8253 41.4483 77.8253 40.8963H75.8253C75.8253 41.6671 75.95 42.4042 76.2076 43.0997L78.0831 42.405ZM77.8253 40.8963C77.8253 40.7055 77.8744 40.6698 77.921 40.6364L76.7537 39.0123C76.1176 39.4695 75.8253 40.1485 75.8253 40.8963H77.8253ZM77.9091 40.6447C78.1496 40.4772 78.289 40.4563 78.3453 40.4563V38.4563C77.7617 38.4563 77.2291 38.6809 76.7656 39.0039L77.9091 40.6447ZM79.3389 39.3429C79.071 36.996 78.9453 35.5068 78.9453 34.8163H76.9453C76.9453 35.6405 77.0864 37.2447 77.3518 39.5698L79.3389 39.3429ZM78.9453 34.8163C78.9453 34.8167 78.9457 34.8577 78.924 34.9226C78.9008 34.9923 78.8546 35.0813 78.7725 35.1634C78.6903 35.2456 78.6013 35.2918 78.5316 35.315C78.4667 35.3366 78.4257 35.3363 78.4253 35.3363V33.3363C78.1112 33.3363 77.6919 33.4156 77.3582 33.7492C77.0246 34.0829 76.9453 34.5022 76.9453 34.8163H78.9453ZM78.4253 35.3363C78.4141 35.3363 78.2264 35.3303 78.0558 35.1483C77.8966 34.9784 77.9053 34.8163 77.9053 34.8483H79.9053C79.9053 34.539 79.8341 34.1209 79.5149 33.7804C79.1843 33.4277 78.7566 33.3363 78.4253 33.3363V35.3363ZM77.9053 34.8483C77.9053 35.2268 77.9288 35.6933 77.9725 36.2401L79.9662 36.0806C79.9246 35.5608 79.9053 35.1526 79.9053 34.8483H77.9053ZM77.9716 36.228C78.0159 36.881 78.1034 37.7634 78.2321 38.8681L80.2186 38.6366C80.0913 37.544 80.0081 36.6984 79.9671 36.0927L77.9716 36.228ZM78.2345 38.8875L78.3305 39.5915L80.3122 39.3212L80.2162 38.6172L78.2345 38.8875ZM79.3213 40.4563C80.0734 40.4563 80.7667 40.3643 81.3489 40.1255L80.5898 38.2752C80.34 38.3777 79.9346 38.4563 79.3213 38.4563V40.4563ZM81.3489 40.1255C81.6174 40.0154 81.9033 39.8626 82.1352 39.6366C82.3836 39.3946 82.5933 39.0407 82.5933 38.5923H80.5933C80.5933 38.4976 80.6156 38.408 80.6513 38.3328C80.6852 38.2616 80.7231 38.2201 80.7395 38.2041C80.7551 38.1889 80.7561 38.192 80.7289 38.2082C80.7024 38.224 80.6579 38.2472 80.5898 38.2752L81.3489 40.1255ZM76.7853 40.9923C76.7853 41.3015 76.8428 41.7239 76.9288 42.2074L78.8979 41.8573C78.8132 41.3808 78.7853 41.1099 78.7853 40.9923H76.7853ZM76.9328 42.2285C76.9861 42.4952 77.0594 42.7752 77.175 43.0116C77.2466 43.158 77.5571 43.7523 78.2653 43.7523V41.7523C78.5472 41.7523 78.7472 41.8821 78.8493 41.9778C78.8977 42.0232 78.9283 42.0638 78.9447 42.0879C78.9615 42.1126 78.9699 42.1294 78.9717 42.1331C78.9744 42.1386 78.9648 42.1195 78.9481 42.0633C78.9322 42.0094 78.9137 41.9349 78.8939 41.8362L76.9328 42.2285ZM78.2653 43.7523C78.3978 43.7523 78.5837 43.74 78.7782 43.6713C78.9818 43.5995 79.2646 43.4378 79.4318 43.1036L77.6429 42.2091C77.7781 41.9389 77.9996 41.8252 78.1125 41.7854C78.2163 41.7487 78.2822 41.7523 78.2653 41.7523V43.7523ZM79.4318 43.1036C79.5239 42.9193 79.553 42.7377 79.5656 42.6364C79.5806 42.5166 79.5853 42.3919 79.5853 42.2723H77.5853C77.5853 42.3068 77.5846 42.3339 77.5836 42.3544C77.5826 42.3753 77.5814 42.3859 77.5811 42.3883C77.5807 42.3916 77.582 42.3785 77.5882 42.3538C77.5914 42.3409 77.5966 42.3221 77.6047 42.299C77.6128 42.2761 77.6249 42.2451 77.6429 42.2091L79.4318 43.1036ZM79.5817 42.1865L79.4217 40.3305L77.429 40.5022L77.589 42.3582L79.5817 42.1865ZM78.4253 39.4163C78.0797 39.4163 77.7326 39.5056 77.4226 39.7123L78.532 41.3764C78.5091 41.3917 78.4839 41.4031 78.4601 41.4099C78.4371 41.4164 78.4238 41.4163 78.4253 41.4163V39.4163ZM77.4226 39.7123C76.9165 40.0497 76.7853 40.5859 76.7853 40.9923H78.7853C78.7853 40.9807 78.7877 41.0321 78.7525 41.1143C78.7126 41.2074 78.6387 41.3053 78.532 41.3764L77.4226 39.7123ZM94.2163 35.7283L93.2676 35.4121L93.2656 35.4185L94.2163 35.7283ZM96.8083 35.2963L95.8597 35.6126L95.8615 35.6179L96.8083 35.2963ZM97.5603 39.4563L96.57 39.5951L96.7073 40.5747L97.6883 40.4481L97.5603 39.4563ZM98.1203 40.3523L98.235 41.3458L98.2599 41.3429L98.2847 41.3387L98.1203 40.3523ZM97.7043 40.4003L97.5897 39.4069L96.5913 39.5221L96.7115 40.52L97.7043 40.4003ZM95.9123 43.3443L95.2204 44.0663L95.2278 44.0734L95.2353 44.0803L95.9123 43.3443ZM95.3043 42.4963L94.3964 42.9154L94.3982 42.9192L95.3043 42.4963ZM96.6003 39.6003L96.8032 40.5795L97.7262 40.3883L97.5898 39.4557L96.6003 39.6003ZM95.9443 35.7603L94.9893 36.0567L94.9955 36.0768L95.0026 36.0967L95.9443 35.7603ZM95.1283 36.0163L94.1797 35.7001L94.1797 35.7001L95.1283 36.0163ZM94.1523 39.1843L93.1822 38.9418L93.1822 38.9418L94.1523 39.1843ZM93.6403 41.2803L94.6129 41.5132L94.6129 41.5132L93.6403 41.2803ZM93.2243 42.9603L92.2576 42.7044L92.255 42.7146L92.2525 42.7247L93.2243 42.9603ZM92.9843 43.6003L92.2772 42.8932L92.2501 42.9204L92.2251 42.9496L92.9843 43.6003ZM92.2003 43.2323L91.214 43.0679L91.2003 43.1496V43.2323H92.2003ZM92.2323 43.0403L91.2622 42.7978L91.2525 42.8365L91.246 42.8759L92.2323 43.0403ZM92.7123 41.0723L91.7429 40.8266L91.7398 40.8395L92.7123 41.0723ZM93.1283 39.3923L92.1594 39.145L92.1571 39.1541L92.1549 39.1633L93.1283 39.3923ZM96.7443 40.5603L97.7343 40.4189L97.5824 39.3556L96.5326 39.583L96.7443 40.5603ZM96.1523 42.0323L95.2619 42.4875L95.2659 42.4952L95.27 42.5029L96.1523 42.0323ZM95.165 36.0446C95.2894 35.6715 95.4194 35.4904 95.5034 35.4109C95.5641 35.3535 95.6093 35.3363 95.6883 35.3363V33.3363C95.0954 33.3363 94.5593 33.5511 94.1293 33.9578C93.7226 34.3423 93.4526 34.8572 93.2677 35.4121L95.165 36.0446ZM95.6883 35.3363C95.7206 35.3363 95.7301 35.341 95.7255 35.3393C95.7198 35.3373 95.7158 35.3341 95.7176 35.3356C95.7246 35.3416 95.7898 35.4031 95.8597 35.6126L97.757 34.9801C97.6135 34.5496 97.3854 34.131 97.0191 33.8171C96.6353 33.4881 96.1719 33.3363 95.6883 33.3363V35.3363ZM95.8615 35.6179C96.0166 36.0747 96.2564 37.3562 96.57 39.5951L98.5507 39.3176C98.2457 37.1404 97.9841 35.6486 97.7552 34.9748L95.8615 35.6179ZM97.6883 40.4481C97.8519 40.427 97.9757 40.4117 98.0619 40.4019C98.1053 40.3969 98.1352 40.3938 98.154 40.392C98.1634 40.3912 98.1666 40.391 98.1652 40.3911C98.1644 40.3911 98.1606 40.3914 98.1546 40.3916C98.1493 40.3919 98.137 40.3923 98.1203 40.3923V38.3923C98.0283 38.3923 97.9033 38.407 97.8348 38.4148C97.7343 38.4263 97.5995 38.443 97.4324 38.4646L97.6883 40.4481ZM98.1203 40.3923C98.12 40.3923 98.079 40.3926 98.0141 40.371C97.9444 40.3478 97.8554 40.3016 97.7732 40.2194C97.6911 40.1373 97.6449 40.0483 97.6217 39.9786C97.6 39.9137 97.6003 39.8727 97.6003 39.8723H99.6003C99.6003 39.5582 99.5211 39.1389 99.1875 38.8052C98.8538 38.4716 98.4345 38.3923 98.1203 38.3923V40.3923ZM97.6003 39.8723C97.6003 39.8083 97.6131 39.7254 97.6524 39.638C97.6917 39.5506 97.7451 39.4866 97.792 39.4449L99.1207 40.9398C99.4294 40.6654 99.6003 40.2871 99.6003 39.8723H97.6003ZM97.792 39.4449C97.8119 39.4272 97.8384 39.4087 97.8704 39.3935C97.9024 39.3782 97.9322 39.3699 97.9559 39.3659L98.2847 41.3387C98.5966 41.2868 98.8824 41.1516 99.1207 40.9398L97.792 39.4449ZM98.0057 39.3589L97.5897 39.4069L97.819 41.3938L98.235 41.3458L98.0057 39.3589ZM96.7115 40.52C96.8173 41.3975 96.8643 42.0097 96.8643 42.3843H98.8643C98.8643 41.8843 98.8048 41.1739 98.6972 40.2807L96.7115 40.52ZM96.8643 42.3843C96.8643 42.5203 96.8466 42.5999 96.8332 42.6395C96.8214 42.6744 96.8139 42.6766 96.8212 42.6692L98.2355 44.0834C98.709 43.6099 98.8643 42.9839 98.8643 42.3843H96.8643ZM96.8212 42.6692C96.7889 42.7015 96.7715 42.7087 96.7704 42.7092C96.769 42.7098 96.7676 42.7103 96.7652 42.7108C96.7627 42.7113 96.7562 42.7123 96.7443 42.7123V44.7123C97.3256 44.7123 97.8365 44.4824 98.2355 44.0834L96.8212 42.6692ZM96.7443 42.7123C96.7439 42.7123 96.7437 42.7124 96.7424 42.7121C96.741 42.7118 96.7353 42.7104 96.7249 42.7058C96.7035 42.6964 96.6575 42.6711 96.5894 42.6084L95.2353 44.0803C95.6369 44.4498 96.1454 44.7123 96.7443 44.7123V42.7123ZM96.6043 42.6224C96.4372 42.4622 96.3073 42.2809 96.2105 42.0735L94.3982 42.9192C94.6 43.3518 94.8755 43.7358 95.2204 44.0663L96.6043 42.6224ZM96.2123 42.0773C95.896 41.3919 95.8243 41.0486 95.8243 40.9443H93.8243C93.8243 41.5228 94.0727 42.2141 94.3964 42.9154L96.2123 42.0773ZM95.8243 40.9443C95.8243 40.9399 95.8236 40.9539 95.8157 40.9687C95.8099 40.9793 95.8168 40.9594 95.8718 40.9177C95.9978 40.8224 96.2759 40.6888 96.8032 40.5795L96.3975 38.6211C95.7408 38.7572 95.1309 38.9703 94.6649 39.3229C94.1593 39.7056 93.8243 40.2586 93.8243 40.9443H95.8243ZM97.5898 39.4557C97.4241 38.322 97.2854 37.4276 97.1741 36.7759C97.0705 36.1697 96.9755 35.6743 96.8861 35.424L95.0026 36.0967C94.9993 36.0874 95.005 36.1026 95.0189 36.1586C95.0315 36.2097 95.0472 36.2793 95.0659 36.3702C95.1034 36.5518 95.1489 36.7981 95.2026 37.1127C95.31 37.7411 95.446 38.6173 95.6109 39.745L97.5898 39.4557ZM96.8994 35.4639C96.845 35.2885 96.7759 35.096 96.6839 34.9293C96.6392 34.8482 96.5623 34.7232 96.4414 34.6064C96.325 34.4939 96.0693 34.2963 95.6883 34.2963V36.2963C95.3448 36.2963 95.1277 36.1182 95.0513 36.0443C94.9704 35.9661 94.9348 35.8991 94.9328 35.8954C94.9261 35.8834 94.9477 35.9228 94.9893 36.0567L96.8994 35.4639ZM95.6883 34.2963C95.1574 34.2963 94.7971 34.6077 94.599 34.8624C94.405 35.1118 94.275 35.4141 94.1797 35.7001L96.077 36.3326C96.107 36.2427 96.1335 36.1785 96.1544 36.1352C96.1759 36.0903 96.1856 36.0801 96.1777 36.0903C96.1704 36.0997 96.1305 36.1493 96.0478 36.1988C95.9574 36.2531 95.833 36.2963 95.6883 36.2963V34.2963ZM94.1797 35.7001C93.6888 37.1728 93.3524 38.261 93.1822 38.9418L95.1225 39.4269C95.2723 38.8277 95.5866 37.8038 96.077 36.3326L94.1797 35.7001ZM93.1822 38.9418C93.0213 39.5855 92.8498 40.2875 92.6678 41.0475L94.6129 41.5132C94.7936 40.7585 94.9634 40.0631 95.1225 39.4269L93.1822 38.9418ZM92.6678 41.0475C92.4868 41.8034 92.3504 42.3539 92.2576 42.7044L94.1911 43.2162C94.2903 42.8415 94.4312 42.2719 94.6129 41.5132L92.6678 41.0475ZM92.2525 42.7247C92.2145 42.8815 92.1841 42.9796 92.164 43.0332C92.1541 43.0597 92.1521 43.0605 92.1604 43.0452C92.1649 43.0368 92.1749 43.0189 92.1915 42.9951C92.2075 42.972 92.2354 42.9351 92.2772 42.8932L93.6915 44.3074C93.8921 44.1068 93.9914 43.8562 94.0367 43.7355C94.0966 43.5758 94.1489 43.3912 94.1962 43.1959L92.2525 42.7247ZM92.2251 42.9496C92.4193 42.723 92.6513 42.7123 92.6803 42.7123V44.7123C92.9867 44.7123 93.4214 44.627 93.7436 44.2511L92.2251 42.9496ZM92.6803 42.7123C92.6807 42.7123 92.7217 42.712 92.7866 42.7337C92.8563 42.7569 92.9453 42.8031 93.0275 42.8852C93.1096 42.9674 93.1558 43.0564 93.179 43.1261C93.2007 43.191 93.2003 43.232 93.2003 43.2323H91.2003C91.2003 43.5465 91.2796 43.9658 91.6132 44.2994C91.9469 44.6331 92.3662 44.7123 92.6803 44.7123V42.7123ZM93.1867 43.3967L93.2187 43.2047L91.246 42.8759L91.214 43.0679L93.1867 43.3967ZM93.2025 43.2829C93.3422 42.7241 93.503 42.0647 93.6849 41.3052L91.7398 40.8395C91.559 41.5947 91.3998 42.2473 91.2622 42.7978L93.2025 43.2829ZM93.6817 41.3181C93.8739 40.5598 94.0144 39.9929 94.1018 39.6214L92.1549 39.1633C92.0717 39.5171 91.9348 40.0702 91.743 40.8266L93.6817 41.3181ZM94.0973 39.6397C94.3461 38.6653 94.7017 37.4661 95.1671 36.0382L93.2656 35.4185C92.7923 36.8706 92.4226 38.1141 92.1594 39.145L94.0973 39.6397ZM96.5326 39.583C96.1884 39.6576 95.8566 39.7507 95.5892 39.88C95.4569 39.9439 95.2838 40.0431 95.1314 40.1981C94.9713 40.3609 94.7843 40.6405 94.7843 41.0243H96.7843C96.7843 41.3228 96.6374 41.5191 96.5573 41.6006C96.4848 41.6742 96.4318 41.6941 96.4595 41.6807C96.5121 41.6553 96.6603 41.6018 96.9561 41.5377L96.5326 39.583ZM94.7843 41.0243C94.7843 41.2985 94.864 41.5633 94.937 41.7633C95.0174 41.9836 95.129 42.2273 95.2619 42.4875L97.0428 41.5772C96.9304 41.3573 96.8579 41.1931 96.8157 41.0774C96.7948 41.0203 96.7852 40.9853 96.7814 40.969C96.7769 40.9495 96.7843 40.9722 96.7843 41.0243H94.7843ZM95.27 42.5029C95.4097 42.7648 95.5593 43.0121 95.7199 43.2074C95.7999 43.3047 95.9087 43.4215 96.0481 43.5211C96.1811 43.6161 96.4219 43.7523 96.7443 43.7523V41.7523C96.9974 41.7523 97.1616 41.8586 97.2106 41.8936C97.266 41.9332 97.2835 41.96 97.2648 41.9372C97.2499 41.9191 97.2214 41.8809 97.1796 41.8145C97.1386 41.7495 97.0903 41.6661 97.0347 41.5618L95.27 42.5029ZM96.7443 43.7523C97.5172 43.7523 97.7723 43.0721 97.8214 42.9103C97.8918 42.6778 97.9043 42.4262 97.9043 42.2243H95.9043C95.9043 42.3745 95.8902 42.3869 95.9073 42.3303C95.9158 42.3022 95.9549 42.1782 96.0744 42.0467C96.2197 41.8868 96.4552 41.7523 96.7443 41.7523V43.7523ZM97.9043 42.2243C97.9043 41.7869 97.8421 41.1737 97.7343 40.4189L95.7544 40.7018C95.8599 41.4403 95.9043 41.9365 95.9043 42.2243H97.9043ZM111.831 37.3763L112.584 38.0348L112.584 38.0348L111.831 37.3763ZM110.695 37.3123L111.54 37.8477L111.54 37.8477L110.695 37.3123ZM112.535 35.7123L112.918 36.6362L116.105 35.3161L112.706 34.727L112.535 35.7123ZM114.135 35.0723L113.935 36.0521L113.953 36.0557L113.971 36.0587L114.135 35.0723ZM114.471 35.2963L113.671 35.8963L113.684 35.9132L113.697 35.9296L114.471 35.2963ZM114.455 36.1603L115.224 36.8005L115.236 36.7855L115.248 36.7701L114.455 36.1603ZM114.135 35.3523C112.92 35.3523 111.873 35.8097 111.079 36.7178L112.584 38.0348C112.984 37.5777 113.474 37.3523 114.135 37.3523V35.3523ZM111.079 36.7178C110.308 37.5983 109.935 38.6702 109.935 39.8723H111.935C111.935 39.1118 112.16 38.5197 112.584 38.0348L111.079 36.7178ZM109.935 39.8723V43.2323H111.935V39.8723H109.935ZM109.935 43.2323C109.935 43.232 109.935 43.191 109.957 43.1261C109.98 43.0564 110.026 42.9674 110.108 42.8852C110.19 42.8031 110.279 42.7569 110.349 42.7337C110.414 42.712 110.455 42.7123 110.455 42.7123V44.7123C110.769 44.7123 111.189 44.6331 111.522 44.2994C111.856 43.9658 111.935 43.5465 111.935 43.2323H109.935ZM110.455 42.7123C110.456 42.7123 110.497 42.712 110.562 42.7337C110.631 42.7569 110.72 42.8031 110.802 42.8852C110.885 42.9674 110.931 43.0564 110.954 43.1261C110.976 43.191 110.975 43.232 110.975 43.2323H108.975C108.975 43.5465 109.055 43.9658 109.388 44.2994C109.722 44.6331 110.141 44.7123 110.455 44.7123V42.7123ZM110.975 43.2323V39.8723H108.975V43.2323H110.975ZM110.975 39.8723C110.975 39.1009 111.168 38.4353 111.54 37.8477L109.851 36.777C109.263 37.704 108.975 38.7451 108.975 39.8723H110.975ZM111.54 37.8477C111.922 37.2444 112.382 36.8581 112.918 36.6362L112.153 34.7885C111.195 35.1852 110.428 35.8656 109.851 36.777L111.54 37.8477ZM112.706 34.727C111.059 34.4415 109.508 34.2963 108.055 34.2963V36.2963C109.376 36.2963 110.812 36.4285 112.365 36.6976L112.706 34.727ZM108.055 34.2963C108.056 34.2963 108.097 34.296 108.162 34.3177C108.231 34.3409 108.32 34.3871 108.402 34.4692C108.485 34.5514 108.531 34.6404 108.554 34.7101C108.576 34.775 108.575 34.816 108.575 34.8163H106.575C106.575 35.1305 106.655 35.5498 106.988 35.8834C107.322 36.2171 107.741 36.2963 108.055 36.2963V34.2963ZM108.575 34.8163C108.575 34.8167 108.576 34.8577 108.554 34.9226C108.531 34.9923 108.485 35.0813 108.402 35.1634C108.32 35.2456 108.231 35.2918 108.162 35.315C108.097 35.3366 108.056 35.3363 108.055 35.3363V33.3363C107.741 33.3363 107.322 33.4156 106.988 33.7492C106.655 34.0829 106.575 34.5022 106.575 34.8163H108.575ZM108.055 35.3363C109.618 35.3363 111.573 35.5691 113.935 36.0521L114.336 34.0926C111.898 33.5942 109.8 33.3363 108.055 33.3363V35.3363ZM113.971 36.0587C113.89 36.0453 113.818 36.0145 113.761 35.9764C113.706 35.9402 113.679 35.9064 113.671 35.8963L115.271 34.6963C115.059 34.4131 114.738 34.1589 114.3 34.0859L113.971 36.0587ZM113.697 35.9296C113.673 35.9001 113.65 35.8611 113.634 35.8155C113.619 35.7705 113.615 35.7336 113.615 35.7123H115.615C115.615 35.3353 115.496 34.9695 115.245 34.6631L113.697 35.9296ZM113.615 35.7123C113.615 35.6788 113.621 35.6423 113.634 35.608C113.645 35.5747 113.659 35.5556 113.663 35.5506L115.248 36.7701C115.476 36.4739 115.615 36.1138 115.615 35.7123H113.615ZM113.687 35.5202C113.664 35.5484 113.811 35.3523 114.135 35.3523V37.3523C114.673 37.3523 115.034 37.0283 115.224 36.8005L113.687 35.5202Z" fill="black" mask="url(#path-4-outside-2_49_62)"/>
<path d="M14.6853 50.4323V49.4323H13.6853V50.4323H14.6853ZM22.3653 50.4323H23.3653V49.4323H22.3653V50.4323ZM22.3653 51.3923V52.3923H23.3653V51.3923H22.3653ZM14.6853 51.3923H13.6853V52.3923H14.6853V51.3923ZM30.0603 50.4323V49.4323H29.0603V50.4323H30.0603ZM37.7403 50.4323H38.7403V49.4323H37.7403V50.4323ZM37.7403 51.3923V52.3923H38.7403V51.3923H37.7403ZM30.0603 51.3923H29.0603V52.3923H30.0603V51.3923ZM45.4353 50.4323V49.4323H44.4353V50.4323H45.4353ZM53.1153 50.4323H54.1153V49.4323H53.1153V50.4323ZM53.1153 51.3923V52.3923H54.1153V51.3923H53.1153ZM45.4353 51.3923H44.4353V52.3923H45.4353V51.3923ZM60.8103 50.4323V49.4323H59.8103V50.4323H60.8103ZM68.4903 50.4323H69.4903V49.4323H68.4903V50.4323ZM68.4903 51.3923V52.3923H69.4903V51.3923H68.4903ZM60.8103 51.3923H59.8103V52.3923H60.8103V51.3923ZM76.1853 50.4323V49.4323H75.1853V50.4323H76.1853ZM83.8653 50.4323H84.8653V49.4323H83.8653V50.4323ZM83.8653 51.3923V52.3923H84.8653V51.3923H83.8653ZM76.1853 51.3923H75.1853V52.3923H76.1853V51.3923ZM91.5603 50.4323V49.4323H90.5603V50.4323H91.5603ZM99.2403 50.4323H100.24V49.4323H99.2403V50.4323ZM99.2403 51.3923V52.3923H100.24V51.3923H99.2403ZM91.5603 51.3923H90.5603V52.3923H91.5603V51.3923ZM106.935 50.4323V49.4323H105.935V50.4323H106.935ZM114.615 50.4323H115.615V49.4323H114.615V50.4323ZM114.615 51.3923V52.3923H115.615V51.3923H114.615ZM106.935 51.3923H105.935V52.3923H106.935V51.3923ZM14.6853 51.4323H22.3653V49.4323H14.6853V51.4323ZM21.3653 50.4323V51.3923H23.3653V50.4323H21.3653ZM22.3653 50.3923H14.6853V52.3923H22.3653V50.3923ZM15.6853 51.3923V50.4323H13.6853V51.3923H15.6853ZM30.0603 51.4323H37.7403V49.4323H30.0603V51.4323ZM36.7403 50.4323V51.3923H38.7403V50.4323H36.7403ZM37.7403 50.3923H30.0603V52.3923H37.7403V50.3923ZM31.0603 51.3923V50.4323H29.0603V51.3923H31.0603ZM45.4353 51.4323H53.1153V49.4323H45.4353V51.4323ZM52.1153 50.4323V51.3923H54.1153V50.4323H52.1153ZM53.1153 50.3923H45.4353V52.3923H53.1153V50.3923ZM46.4353 51.3923V50.4323H44.4353V51.3923H46.4353ZM60.8103 51.4323H68.4903V49.4323H60.8103V51.4323ZM67.4903 50.4323V51.3923H69.4903V50.4323H67.4903ZM68.4903 50.3923H60.8103V52.3923H68.4903V50.3923ZM61.8103 51.3923V50.4323H59.8103V51.3923H61.8103ZM76.1853 51.4323H83.8653V49.4323H76.1853V51.4323ZM82.8653 50.4323V51.3923H84.8653V50.4323H82.8653ZM83.8653 50.3923H76.1853V52.3923H83.8653V50.3923ZM77.1853 51.3923V50.4323H75.1853V51.3923H77.1853ZM91.5603 51.4323H99.2403V49.4323H91.5603V51.4323ZM98.2403 50.4323V51.3923H100.24V50.4323H98.2403ZM99.2403 50.3923H91.5603V52.3923H99.2403V50.3923ZM92.5603 51.3923V50.4323H90.5603V51.3923H92.5603ZM106.935 51.4323H114.615V49.4323H106.935V51.4323ZM113.615 50.4323V51.3923H115.615V50.4323H113.615ZM114.615 50.3923H106.935V52.3923H114.615V50.3923ZM107.935 51.3923V50.4323H105.935V51.3923H107.935Z" fill="black" mask="url(#path-4-outside-2_49_62)"/>
</svg>
